G04 This is an RS-274x file exported by *
G04 gerbv version 2.6.1 *
G04 More information is available about gerbv at *
G04 http://gerbv.geda-project.org/ *
G04 --End of header info--*
%MOIN*%
%FSLAX34Y34*%
%IPPOS*%
G04 --Define apertures--*
%ADD10C,0.0130*%
%ADD11C,0.0236*%
%ADD12C,0.0300*%
%ADD13C,0.0394*%
%ADD14C,0.0433*%
%ADD15C,0.0512*%
%ADD16C,0.0591*%
%ADD17C,0.1220*%
%ADD18C,0.0669*%
G04 --Start main section--*
G54D10*
G01X0032717Y0002278D03*
G01X0033071Y0002278D03*
G01X0033071Y0002778D03*
G01X0032717Y0002778D03*
G01X0032717Y0004778D03*
G01X0033071Y0004778D03*
G01X0033701Y0004791D03*
G01X0033701Y0005145D03*
G01X0033661Y0006312D03*
G01X0033661Y0006666D03*
G01X0032852Y0006105D03*
G01X0032852Y0005750D03*
G54D11*
G01X0017362Y0011321D03*
G01X0017362Y0012306D03*
G01X0017362Y0013290D03*
G01X0017362Y0014274D03*
G01X0017362Y0015258D03*
G01X0020362Y0015258D03*
G01X0020362Y0014274D03*
G01X0020362Y0013290D03*
G01X0020362Y0012306D03*
G01X0020362Y0011321D03*
G01X0023425Y0011321D03*
G01X0023425Y0012306D03*
G01X0023425Y0013290D03*
G01X0023425Y0014274D03*
G01X0023425Y0015258D03*
G01X0026425Y0015258D03*
G01X0026425Y0014274D03*
G01X0026425Y0013290D03*
G01X0026425Y0012306D03*
G01X0026425Y0011321D03*
G01X0029606Y0011321D03*
G01X0029606Y0012306D03*
G01X0029606Y0013290D03*
G01X0029606Y0014274D03*
G01X0029606Y0015258D03*
G01X0032606Y0015258D03*
G01X0032606Y0014274D03*
G01X0032606Y0013290D03*
G01X0032606Y0012306D03*
G01X0032606Y0011321D03*
G01X0035669Y0011321D03*
G01X0035669Y0012306D03*
G01X0035669Y0013290D03*
G01X0035669Y0014274D03*
G01X0035669Y0015258D03*
G01X0038669Y0015258D03*
G01X0038669Y0014274D03*
G01X0038669Y0013290D03*
G01X0038669Y0012306D03*
G01X0038669Y0011321D03*
G01X0041850Y0011321D03*
G01X0041850Y0012306D03*
G01X0041850Y0013290D03*
G01X0041850Y0014274D03*
G01X0041850Y0015258D03*
G01X0044850Y0015258D03*
G01X0044850Y0014274D03*
G01X0044850Y0013290D03*
G01X0044850Y0012306D03*
G01X0044850Y0011321D03*
G54D12*
G01X0044411Y0000605D03*
G01X0045511Y0000605D03*
G01X0046061Y0001558D03*
G01X0045511Y0002510D03*
G01X0044411Y0002510D03*
G01X0043861Y0001558D03*
G01X0002635Y0001558D03*
G01X0002085Y0000605D03*
G01X0000985Y0000605D03*
G01X0000435Y0001558D03*
G01X0000985Y0002510D03*
G01X0002085Y0002510D03*
G01X0002085Y0019896D03*
G01X0000985Y0019896D03*
G01X0000435Y0020849D03*
G01X0000985Y0021802D03*
G01X0002085Y0021802D03*
G01X0002635Y0020849D03*
G54D13*
G01X0041283Y0006187D03*
G01X0041283Y0007188D03*
G01X0041283Y0008188D03*
G01X0042283Y0008188D03*
G01X0042283Y0007188D03*
G01X0042283Y0006187D03*
G54D14*
G01X0011654Y0003172D03*
G01X0013154Y0003172D03*
G01X0017244Y0003140D03*
G01X0018744Y0003140D03*
G01X0020244Y0003140D03*
G01X0006106Y0003132D03*
G01X0004606Y0003132D03*
G54D15*
G01X0001378Y0007165D03*
G01X0006102Y0007165D03*
G01X0008425Y0007165D03*
G01X0008425Y0011968D03*
G01X0006102Y0011968D03*
G01X0003740Y0012755D03*
G01X0001378Y0011968D03*
G01X0010787Y0012755D03*
G01X0013150Y0011968D03*
G01X0013150Y0007165D03*
G01X0017343Y0017463D03*
G01X0020295Y0017463D03*
G01X0023484Y0017463D03*
G01X0026437Y0017463D03*
G01X0029626Y0017463D03*
G01X0032579Y0017463D03*
G01X0035768Y0017463D03*
G01X0038720Y0017463D03*
G01X0041909Y0017463D03*
G01X0044862Y0017463D03*
G54D16*
G01X0041909Y0020317D03*
G01X0035768Y0020317D03*
G01X0029626Y0020317D03*
G01X0023484Y0020317D03*
G01X0017343Y0020317D03*
G54D17*
G01X0044961Y0001558D03*
G01X0001535Y0001558D03*
G01X0001535Y0020849D03*
G01X0000000Y0000000D02*
G54D18*
G01X0016498Y0019344D02*
G01X0016498Y0018635D01*
G01X0021140Y0019344D02*
G01X0021140Y0018635D01*
G01X0022639Y0019344D02*
G01X0022639Y0018635D01*
G01X0027282Y0019344D02*
G01X0027282Y0018635D01*
G01X0028781Y0019344D02*
G01X0028781Y0018635D01*
G01X0033424Y0019344D02*
G01X0033424Y0018635D01*
G01X0034923Y0019344D02*
G01X0034923Y0018635D01*
G01X0039565Y0019344D02*
G01X0039565Y0018635D01*
G01X0041065Y0019344D02*
G01X0041065Y0018635D01*
G01X0045707Y0019344D02*
G01X0045707Y0018635D01*
M02*
