%FSLAX24Y24*%
%MOIN*%
%SFA1B1*%

%IPPOS*%
%AMD10*
4,1,8,-0.017700,0.015000,-0.017700,-0.015000,-0.016000,-0.016700,0.016000,-0.016700,0.017700,-0.015000,0.017700,0.015000,0.016000,0.016700,-0.016000,0.016700,-0.017700,0.015000,0.0*
1,1,0.003400,-0.016000,0.015000*
1,1,0.003400,-0.016000,-0.015000*
1,1,0.003400,0.016000,-0.015000*
1,1,0.003400,0.016000,0.015000*
%
%AMD11*
4,1,8,-0.015000,-0.017700,0.015000,-0.017700,0.016700,-0.016000,0.016700,0.016000,0.015000,0.017700,-0.015000,0.017700,-0.016700,0.016000,-0.016700,-0.016000,-0.015000,-0.017700,0.0*
1,1,0.003400,-0.015000,-0.016000*
1,1,0.003400,0.015000,-0.016000*
1,1,0.003400,0.015000,0.016000*
1,1,0.003400,-0.015000,0.016000*
%
%AMD14*
4,1,8,0.015700,-0.022000,0.015700,0.022000,0.014100,0.023600,-0.014100,0.023600,-0.015700,0.022000,-0.015700,-0.022000,-0.014100,-0.023600,0.014100,-0.023600,0.015700,-0.022000,0.0*
1,1,0.003200,0.014100,-0.022000*
1,1,0.003200,0.014100,0.022000*
1,1,0.003200,-0.014100,0.022000*
1,1,0.003200,-0.014100,-0.022000*
%
G04~CAMADD=10~8~0.0~0.0~335.0~354.0~17.0~0.0~15~0.0~0.0~0.0~0.0~0~0.0~0.0~0.0~0.0~0~0.0~0.0~0.0~90.0~354.0~334.0*
%ADD10D10*%
G04~CAMADD=11~8~0.0~0.0~335.0~354.0~17.0~0.0~15~0.0~0.0~0.0~0.0~0~0.0~0.0~0.0~0.0~0~0.0~0.0~0.0~180.0~334.0~354.0*
%ADD11D11*%
%ADD12O,0.023600X0.086600*%
%ADD13O,0.090600X0.023600*%
G04~CAMADD=14~8~0.0~0.0~472.0~315.0~16.0~0.0~15~0.0~0.0~0.0~0.0~0~0.0~0.0~0.0~0.0~0~0.0~0.0~0.0~270.0~314.0~472.0*
%ADD14D14*%
%LNsourceselection-1*%
%LPD*%
G54D10*
X39961Y8484D03*
Y7815D03*
Y6280D03*
Y6949D03*
X13228Y14136D03*
Y13467D03*
X12441Y14862D03*
Y14193D03*
X6142Y15571D03*
Y14902D03*
X16496Y13287D03*
Y12618D03*
Y12028D03*
Y11358D03*
X22559Y13366D03*
Y12697D03*
Y12028D03*
Y11358D03*
X28780Y13366D03*
Y12697D03*
Y12028D03*
Y11358D03*
X34843Y13366D03*
Y12697D03*
Y12028D03*
Y11358D03*
X41024Y13366D03*
Y12697D03*
Y12028D03*
Y11358D03*
G54D11*
X6122Y14134D03*
X6791D03*
G54D12*
X29352Y6676D03*
X29852D03*
X30352D03*
X30852D03*
X31352D03*
X31852D03*
X32352D03*
X32852D03*
X29352Y8565D03*
X29852D03*
X30352D03*
X30852D03*
X31352D03*
X31852D03*
X32352D03*
X32852D03*
G54D13*
X28563Y4778D03*
Y4278D03*
Y3778D03*
Y3278D03*
Y2778D03*
Y2278D03*
Y1778D03*
Y1278D03*
Y778D03*
X32146Y4778D03*
Y4278D03*
Y3778D03*
Y3278D03*
Y2778D03*
Y2278D03*
Y1778D03*
Y1278D03*
Y778D03*
G54D14*
X33701Y4220D03*
Y3531D03*
X33661Y7237D03*
Y7926D03*
M02*