%FSDAX24Y24*%
%MOIN*%
%SFA1B1*%

%IPPOS*%
%ADD9500C,0.013000*%
%ADD9501C,0.023600*%
%ADD9502C,0.030000*%
%ADD9503C,0.039400*%
%ADD9504C,0.043300*%
%ADD9505C,0.051200*%
%ADD9506C,0.059100*%
%ADD9507C,0.122000*%
%LNsourceselection-roundholes-1*%
%LPD*%
G54D9500*
X032717Y002278D03*
X033071D03*
Y002778D03*
X032717D03*
Y004778D03*
X033071D03*
X033701Y004791D03*
Y005145D03*
X033661Y006312D03*
Y006666D03*
X032852Y006105D03*
Y005750D03*
G54D9501*
X017362Y011321D03*
Y012306D03*
Y013290D03*
Y014274D03*
Y015258D03*
X020362D03*
Y014274D03*
Y013290D03*
Y012306D03*
Y011321D03*
X023425D03*
Y012306D03*
Y013290D03*
Y014274D03*
Y015258D03*
X026425D03*
Y014274D03*
Y013290D03*
Y012306D03*
Y011321D03*
X029606D03*
Y012306D03*
Y013290D03*
Y014274D03*
Y015258D03*
X032606D03*
Y014274D03*
Y013290D03*
Y012306D03*
Y011321D03*
X035669D03*
Y012306D03*
Y013290D03*
Y014274D03*
Y015258D03*
X038669D03*
Y014274D03*
Y013290D03*
Y012306D03*
Y011321D03*
X041850D03*
Y012306D03*
Y013290D03*
Y014274D03*
Y015258D03*
X044850D03*
Y014274D03*
Y013290D03*
Y012306D03*
Y011321D03*
G54D9502*
X044411Y000605D03*
X045511D03*
X046061Y001558D03*
X045511Y002510D03*
X044411D03*
X043861Y001558D03*
X002635D03*
X002085Y000605D03*
X000985D03*
X000435Y001558D03*
X000985Y002510D03*
X002085D03*
Y019896D03*
X000985D03*
X000435Y020849D03*
X000985Y021802D03*
X002085D03*
X002635Y020849D03*
G54D9503*
X041283Y006187D03*
Y007188D03*
Y008188D03*
X042283D03*
Y007188D03*
Y006187D03*
G54D9504*
X011654Y003172D03*
X013154D03*
X017244Y003140D03*
X018744D03*
X020244D03*
X006106Y003132D03*
X004606D03*
G54D9505*
X001378Y007165D03*
X006102D03*
X008425D03*
Y011968D03*
X006102D03*
X003740Y012755D03*
X001378Y011968D03*
X010787Y012755D03*
X013150Y011968D03*
Y007165D03*
X017343Y017463D03*
X020295D03*
X023484D03*
X026437D03*
X029626D03*
X032579D03*
X035768D03*
X038720D03*
X041909D03*
X044862D03*
G54D9506*
X041909Y020317D03*
X035768D03*
X029626D03*
X023484D03*
X017343D03*
G54D9507*
X044961Y001558D03*
X001535D03*
Y020849D03*
M02*