%FSLAX24Y24*%
%MOIN*%
%SFA1B1*%

%IPPOS*%
%ADD44R,0.073000X0.073000*%
%ADD45C,0.073000*%
%ADD46C,0.078900*%
%ADD47C,0.068000*%
%ADD48C,0.258000*%
%ADD49R,0.055200X0.055200*%
%ADD50O,0.055200X0.055200*%
%ADD51R,0.086700X0.086700*%
%ADD52C,0.086700*%
%ADD53C,0.094600*%
%ADD54C,0.106400*%
%ADD55O,0.074900X0.145800*%
%LNsourceselection-1*%
%LPD*%
G54D44*
X41283Y8188D03*
G54D45*
X42283Y8188D03*
X41283Y7188D03*
X42283D03*
X41283Y6187D03*
X42283D03*
G54D46*
X13150Y7165D03*
X8425D03*
Y11968D03*
X10787Y12755D03*
X13150Y11968D03*
X6102Y7165D03*
X1378D03*
Y11968D03*
X3740Y12755D03*
X6102Y11968D03*
G54D47*
X44411Y2510D03*
X45511D03*
X46061Y1558D03*
X45511Y605D03*
X44411D03*
X43861Y1558D03*
X985Y21802D03*
X2085D03*
X2635Y20849D03*
X2085Y19896D03*
X985D03*
X435Y20849D03*
Y1558D03*
X985Y605D03*
X2085D03*
X2635Y1558D03*
X2085Y2510D03*
X985D03*
G54D48*
X44961Y1558D03*
X1535Y20849D03*
Y1558D03*
G54D49*
X41850Y11321D03*
X35669D03*
X29606D03*
X23425D03*
X17362D03*
G54D50*
X41850Y12306D03*
Y13290D03*
Y14274D03*
Y15258D03*
X44850Y11321D03*
Y12306D03*
Y13290D03*
Y14274D03*
Y15258D03*
X35669Y12306D03*
Y13290D03*
Y14274D03*
Y15258D03*
X38669Y11321D03*
Y12306D03*
Y13290D03*
Y14274D03*
Y15258D03*
X29606Y12306D03*
Y13290D03*
Y14274D03*
Y15258D03*
X32606Y11321D03*
Y12306D03*
Y13290D03*
Y14274D03*
Y15258D03*
X23425Y12306D03*
Y13290D03*
Y14274D03*
Y15258D03*
X26425Y11321D03*
Y12306D03*
Y13290D03*
Y14274D03*
Y15258D03*
X17362Y12306D03*
Y13290D03*
Y14274D03*
Y15258D03*
X20362Y11321D03*
Y12306D03*
Y13290D03*
Y14274D03*
Y15258D03*
G54D51*
X11654Y3172D03*
X17244Y3140D03*
X4606Y3132D03*
G54D52*
X13154Y3172D03*
X20244Y3140D03*
X18744D03*
X6106Y3132D03*
G54D53*
X17343Y17463D03*
X20295D03*
X23484D03*
X26437D03*
X29626D03*
X32579D03*
X35768D03*
X38720D03*
X41909D03*
X44862D03*
G54D54*
X17343Y20317D03*
X23484D03*
X29626D03*
X35768D03*
X41909D03*
G54D55*
X21140Y18989D03*
X16498D03*
X27282D03*
X22639D03*
X33424D03*
X28781D03*
X39565D03*
X34923D03*
X45707D03*
X41065D03*
M02*