%FSLAX24Y24*%
%MOIN*%
%SFA1B1*%

%IPPOS*%
%ADD18R,0.065000X0.065000*%
%ADD19C,0.065000*%
%ADD20C,0.070900*%
%ADD21C,0.060000*%
%ADD22C,0.250000*%
%ADD23R,0.047200X0.047200*%
%ADD24O,0.047200X0.047200*%
%ADD25R,0.078700X0.078700*%
%ADD26C,0.078700*%
%ADD27C,0.086600*%
%ADD28C,0.098400*%
%ADD29O,0.066900X0.137800*%
%LNsourceselection-1*%
%LPD*%
G54D18*
X41283Y8188D03*
G54D19*
X42283Y8188D03*
X41283Y7188D03*
X42283D03*
X41283Y6187D03*
X42283D03*
G54D20*
X13150Y7165D03*
X8425D03*
Y11968D03*
X10787Y12755D03*
X13150Y11968D03*
X6102Y7165D03*
X1378D03*
Y11968D03*
X3740Y12755D03*
X6102Y11968D03*
G54D21*
X44411Y2510D03*
X45511D03*
X46061Y1558D03*
X45511Y605D03*
X44411D03*
X43861Y1558D03*
X985Y21802D03*
X2085D03*
X2635Y20849D03*
X2085Y19896D03*
X985D03*
X435Y20849D03*
Y1558D03*
X985Y605D03*
X2085D03*
X2635Y1558D03*
X2085Y2510D03*
X985D03*
G54D22*
X44961Y1558D03*
X1535Y20849D03*
Y1558D03*
G54D23*
X41850Y11321D03*
X35669D03*
X29606D03*
X23425D03*
X17362D03*
G54D24*
X41850Y12306D03*
Y13290D03*
Y14274D03*
Y15258D03*
X44850Y11321D03*
Y12306D03*
Y13290D03*
Y14274D03*
Y15258D03*
X35669Y12306D03*
Y13290D03*
Y14274D03*
Y15258D03*
X38669Y11321D03*
Y12306D03*
Y13290D03*
Y14274D03*
Y15258D03*
X29606Y12306D03*
Y13290D03*
Y14274D03*
Y15258D03*
X32606Y11321D03*
Y12306D03*
Y13290D03*
Y14274D03*
Y15258D03*
X23425Y12306D03*
Y13290D03*
Y14274D03*
Y15258D03*
X26425Y11321D03*
Y12306D03*
Y13290D03*
Y14274D03*
Y15258D03*
X17362Y12306D03*
Y13290D03*
Y14274D03*
Y15258D03*
X20362Y11321D03*
Y12306D03*
Y13290D03*
Y14274D03*
Y15258D03*
G54D25*
X11654Y3172D03*
X17244Y3140D03*
X4606Y3132D03*
G54D26*
X13154Y3172D03*
X20244Y3140D03*
X18744D03*
X6106Y3132D03*
G54D27*
X17343Y17463D03*
X20295D03*
X23484D03*
X26437D03*
X29626D03*
X32579D03*
X35768D03*
X38720D03*
X41909D03*
X44862D03*
G54D28*
X17343Y20317D03*
X23484D03*
X29626D03*
X35768D03*
X41909D03*
G54D29*
X21140Y18989D03*
X16498D03*
X27282D03*
X22639D03*
X33424D03*
X28781D03*
X39565D03*
X34923D03*
X45707D03*
X41065D03*
M02*