%FSLAX24Y24*%
%MOIN*%
%SFA1B1*%

%IPPOS*%
%AMD10*
4,1,8,-0.017700,0.015000,-0.017700,-0.015000,-0.016000,-0.016700,0.016000,-0.016700,0.017700,-0.015000,0.017700,0.015000,0.016000,0.016700,-0.016000,0.016700,-0.017700,0.015000,0.0*
1,1,0.003400,-0.016000,0.015000*
1,1,0.003400,-0.016000,-0.015000*
1,1,0.003400,0.016000,-0.015000*
1,1,0.003400,0.016000,0.015000*
%
%AMD11*
4,1,8,-0.015000,-0.017700,0.015000,-0.017700,0.016700,-0.016000,0.016700,0.016000,0.015000,0.017700,-0.015000,0.017700,-0.016700,0.016000,-0.016700,-0.016000,-0.015000,-0.017700,0.0*
1,1,0.003400,-0.015000,-0.016000*
1,1,0.003400,0.015000,-0.016000*
1,1,0.003400,0.015000,0.016000*
1,1,0.003400,-0.015000,0.016000*
%
%AMD14*
4,1,8,0.015700,-0.022000,0.015700,0.022000,0.014100,0.023600,-0.014100,0.023600,-0.015700,0.022000,-0.015700,-0.022000,-0.014100,-0.023600,0.014100,-0.023600,0.015700,-0.022000,0.0*
1,1,0.003200,0.014100,-0.022000*
1,1,0.003200,0.014100,0.022000*
1,1,0.003200,-0.014100,0.022000*
1,1,0.003200,-0.014100,-0.022000*
%
G04~CAMADD=10~8~0.0~0.0~335.0~354.0~17.0~0.0~15~0.0~0.0~0.0~0.0~0~0.0~0.0~0.0~0.0~0~0.0~0.0~0.0~90.0~354.0~334.0*
%ADD10D10*%
G04~CAMADD=11~8~0.0~0.0~335.0~354.0~17.0~0.0~15~0.0~0.0~0.0~0.0~0~0.0~0.0~0.0~0.0~0~0.0~0.0~0.0~180.0~334.0~354.0*
%ADD11D11*%
%ADD12O,0.023600X0.086600*%
%ADD13O,0.090600X0.023600*%
G04~CAMADD=14~8~0.0~0.0~472.0~315.0~16.0~0.0~15~0.0~0.0~0.0~0.0~0~0.0~0.0~0.0~0.0~0~0.0~0.0~0.0~270.0~314.0~472.0*
%ADD14D14*%
%ADD15C,0.010000*%
%ADD16C,0.039400*%
%ADD17C,0.019700*%
%ADD18R,0.065000X0.065000*%
%ADD19C,0.065000*%
%ADD20C,0.070900*%
%ADD21C,0.060000*%
%ADD22C,0.250000*%
%ADD23R,0.047200X0.047200*%
%ADD24O,0.047200X0.047200*%
%ADD25R,0.078700X0.078700*%
%ADD26C,0.078700*%
%ADD27C,0.086600*%
%ADD28C,0.098400*%
%ADD29O,0.066900X0.137800*%
%ADD30C,0.025000*%
%LNsourceselection-1*%
%LPD*%
G36*
X7244Y7662D02*
Y2542D01*
X5587*
X5551Y2577*
Y7697*
X7209*
X7244Y7662*
G37*
G36*
X4331Y10236D02*
X5197D01*
Y2542*
X3858*
X3189Y3819*
Y13338*
X4331*
Y10236*
G37*
G36*
X11378D02*
X12245D01*
Y2542*
X10236*
Y13338*
X11378*
Y10236*
G37*
G36*
X46378Y22077D02*
Y1880D01*
X46328Y1857*
X46266Y1904*
X46249Y1976*
X46167Y2172*
X46056Y2354*
X45918Y2515*
X45913Y2520*
X45900Y2615*
X45860Y2712*
X45796Y2795*
X45712Y2860*
X45615Y2900*
X45511Y2914*
X45406Y2900*
X45313Y2861*
X45172Y2895*
X44961Y2912*
X44749Y2895*
X44608Y2861*
X44515Y2900*
X44411Y2914*
X44306Y2900*
X44209Y2860*
X44125Y2795*
X44061Y2712*
X44021Y2615*
X44008Y2520*
X44003Y2515*
X43865Y2354*
X43754Y2172*
X43673Y1976*
X43656Y1904*
X43575Y1843*
X43511Y1759*
X43471Y1662*
X43457Y1558*
X43471Y1453*
X43511Y1356*
X43575Y1272*
X43656Y1211*
X43673Y1139*
X43754Y943*
X43865Y762*
X44003Y600*
X44008Y595*
X44021Y501*
X44061Y403*
X44125Y320*
X44209Y256*
X44271Y230*
X44262Y180*
X16571*
X16535Y215*
Y8300*
X16582Y8320*
X17467Y7434*
X17517Y7401*
X17576Y7389*
X32126*
X32185Y7401*
X32234Y7434*
X32461Y7660*
X32494Y7710*
X32505Y7768*
Y8090*
X32510Y8093*
X32558Y8165*
X32575Y8250*
Y8880*
X32558Y8966*
X32510Y9038*
X32437Y9086*
X32352Y9103*
X32267Y9086*
X32195Y9038*
X32147Y8966*
X32130Y8880*
Y8250*
X32147Y8165*
X32195Y8093*
X32199Y8090*
Y7832*
X32063Y7695*
X31781*
X31762Y7741*
X31961Y7939*
X31994Y7989*
X32005Y8047*
Y8090*
X32010Y8093*
X32058Y8165*
X32075Y8250*
Y8880*
X32058Y8966*
X32010Y9038*
X31937Y9086*
X31852Y9103*
X31767Y9086*
X31695Y9038*
X31647Y8966*
X31630Y8880*
Y8250*
X31647Y8165*
X31690Y8101*
X31520Y7931*
X17819*
X14567Y11183*
Y15866*
X6192*
Y15571*
X6092*
Y15866*
X1890*
Y11475*
X1854Y11439*
X711*
Y15866*
X709Y17484*
X744Y17520*
X14567*
Y22047*
X46343Y22112*
X46378Y22077*
G37*
G36*
X14291Y7662D02*
Y2542D01*
X12634*
X12598Y2577*
Y7697*
X14256*
X14291Y7662*
G37*
%LNsourceselection-2*%
%LPC*%
G36*
X33611Y8264D02*
X33520D01*
X33475Y8255*
X33436Y8230*
X33411Y8191*
X33402Y8146*
Y7976*
X33611*
Y8264*
G37*
G36*
X33803D02*
X33711D01*
Y7976*
X33921*
Y8146*
X33912Y8191*
X33887Y8230*
X33848Y8255*
X33803Y8264*
G37*
G36*
X42283Y8616D02*
X42173Y8601D01*
X42069Y8559*
X41980Y8490*
X41912Y8402*
X41870Y8298*
X41855Y8188*
X41870Y8077*
X41912Y7973*
X41980Y7885*
X42069Y7816*
X42173Y7774*
X42283Y7759*
X42394Y7774*
X42498Y7816*
X42586Y7885*
X42655Y7973*
X42697Y8077*
X42712Y8188*
X42697Y8298*
X42655Y8402*
X42586Y8490*
X42498Y8559*
X42394Y8601*
X42283Y8616*
G37*
G36*
X40121Y8754D02*
X40011D01*
Y8534*
X40240*
Y8635*
X40231Y8680*
X40205Y8719*
X40167Y8745*
X40121Y8754*
G37*
G36*
X41708Y8612D02*
X40859D01*
Y7763*
X41492*
X41605Y7649*
Y7539*
X41555Y7514*
X41498Y7559*
X41394Y7601*
X41283Y7616*
X41173Y7601*
X41111Y7576*
X41063Y7608*
X41004Y7620*
X40271*
X40239Y7658*
X40240Y7664*
Y7966*
X40231Y8011*
X40205Y8050*
X40167Y8076*
X40121Y8085*
X39800*
X39755Y8076*
X39716Y8050*
X39690Y8011*
X39681Y7966*
Y7664*
X39682Y7658*
X39651Y7620*
X36185*
X36126Y7608*
X36077Y7575*
X34656Y6154*
X34622Y6104*
X34611Y6046*
Y2376*
X33666Y1431*
X32640*
X32638Y1435*
X32565Y1484*
X32480Y1500*
X31811*
X31726Y1484*
X31654Y1435*
X31606Y1363*
X31589Y1278*
X31606Y1193*
X31654Y1121*
X31726Y1073*
X31811Y1056*
X32480*
X32565Y1073*
X32638Y1121*
X32640Y1125*
X33577*
X33596Y1079*
X33448Y931*
X32640*
X32638Y935*
X32565Y984*
X32480Y1000*
X31811*
X31726Y984*
X31654Y935*
X31606Y863*
X31589Y778*
X31606Y693*
X31654Y621*
X31726Y573*
X31811Y556*
X32480*
X32565Y573*
X32638Y621*
X32640Y625*
X33512*
X33570Y637*
X33620Y670*
X35108Y2158*
X35141Y2208*
X35153Y2266*
Y5936*
X36331Y7114*
X39669*
X39681Y7099*
Y6798*
X39690Y6753*
X39716Y6714*
X39755Y6688*
X39800Y6679*
X40121*
X40167Y6688*
X40205Y6714*
X40231Y6753*
X40240Y6798*
Y7000*
X40286Y7019*
X40701Y6605*
X40750Y6571*
X40809Y6560*
X40989*
X41006Y6510*
X40980Y6490*
X40912Y6402*
X40870Y6298*
X40862Y6237*
X41705*
X41697Y6298*
X41655Y6402*
X41586Y6490*
X41546Y6522*
X41544Y6536*
X41552Y6580*
X41588Y6605*
X41866Y6883*
X41891Y6919*
X41935Y6927*
X41949Y6925*
X41980Y6885*
X42069Y6816*
X42173Y6774*
X42283Y6759*
X42394Y6774*
X42498Y6816*
X42586Y6885*
X42655Y6973*
X42697Y7077*
X42712Y7188*
X42697Y7298*
X42655Y7402*
X42586Y7490*
X42498Y7559*
X42394Y7601*
X42283Y7616*
X42173Y7601*
X42069Y7559*
X41980Y7490*
X41961Y7465*
X41911Y7482*
Y7713*
X41900Y7771*
X41866Y7821*
X41708Y7979*
Y8612*
G37*
G36*
X33075Y8515D02*
X32902D01*
Y8038*
X32937Y8045*
X33010Y8093*
X33058Y8165*
X33075Y8250*
Y8515*
G37*
G36*
X32802D02*
X32630D01*
Y8250*
X32647Y8165*
X32695Y8093*
X32767Y8045*
X32802Y8038*
Y8515*
G37*
G36*
X39911Y8434D02*
X39681D01*
Y8334*
X39690Y8288*
X39716Y8249*
X39755Y8224*
X39800Y8215*
X39911*
Y8434*
G37*
G36*
Y8754D02*
X39800D01*
X39755Y8745*
X39716Y8719*
X39690Y8680*
X39681Y8635*
Y8534*
X39911*
Y8754*
G37*
G36*
X40240Y8434D02*
X40011D01*
Y8215*
X40121*
X40167Y8224*
X40205Y8249*
X40231Y8288*
X40240Y8334*
Y8434*
G37*
G36*
X6052Y7115D02*
X5651D01*
X5660Y7046*
X5706Y6936*
X5778Y6841*
X5873Y6768*
X5984Y6722*
X6052Y6713*
Y7115*
G37*
G36*
X6554D02*
X6152D01*
Y6713*
X6221Y6722*
X6331Y6768*
X6426Y6841*
X6499Y6936*
X6545Y7046*
X6554Y7115*
G37*
G36*
X40121Y6549D02*
X40011D01*
Y6330*
X40240*
Y6430*
X40231Y6476*
X40205Y6514*
X40167Y6540*
X40121Y6549*
G37*
G36*
X42333Y6609D02*
Y6237D01*
X42705*
X42697Y6298*
X42655Y6402*
X42586Y6490*
X42498Y6559*
X42394Y6601*
X42333Y6609*
G37*
G36*
X39911Y6549D02*
X39800D01*
X39755Y6540*
X39716Y6514*
X39690Y6476*
X39681Y6430*
Y6330*
X39911*
Y6549*
G37*
G36*
X13100Y7115D02*
X12698D01*
X12707Y7046*
X12753Y6936*
X12826Y6841*
X12920Y6768*
X13031Y6722*
X13100Y6713*
Y7115*
G37*
G36*
Y7616D02*
X13031Y7607D01*
X12920Y7562*
X12826Y7489*
X12753Y7394*
X12707Y7283*
X12698Y7215*
X13100*
Y7616*
G37*
G36*
X13200D02*
Y7215D01*
X13601*
X13592Y7283*
X13546Y7394*
X13474Y7489*
X13379Y7562*
X13268Y7607*
X13200Y7616*
G37*
G36*
X6152D02*
Y7215D01*
X6554*
X6545Y7283*
X6499Y7394*
X6426Y7489*
X6331Y7562*
X6221Y7607*
X6152Y7616*
G37*
G36*
X13601Y7115D02*
X13200D01*
Y6713*
X13268Y6722*
X13379Y6768*
X13474Y6841*
X13546Y6936*
X13592Y7046*
X13601Y7115*
G37*
G36*
X6052Y7616D02*
X5984Y7607D01*
X5873Y7562*
X5778Y7489*
X5706Y7394*
X5660Y7283*
X5651Y7215*
X6052*
Y7616*
G37*
G36*
X32802Y9093D02*
X32767Y9086D01*
X32695Y9038*
X32647Y8966*
X32630Y8880*
Y8615*
X32802*
Y9093*
G37*
G36*
X26475Y11654D02*
Y11371D01*
X26758*
X26753Y11409*
X26719Y11491*
X26665Y11561*
X26595Y11615*
X26513Y11649*
X26475Y11654*
G37*
G36*
X32556D02*
X32519Y11649D01*
X32437Y11615*
X32367Y11561*
X32313Y11491*
X32279Y11409*
X32274Y11371*
X32556*
Y11654*
G37*
G36*
X26375D02*
X26337Y11649D01*
X26256Y11615*
X26185Y11561*
X26132Y11491*
X26098Y11409*
X26093Y11371*
X26375*
Y11654*
G37*
G36*
X20312D02*
X20274Y11649D01*
X20193Y11615*
X20122Y11561*
X20069Y11491*
X20035Y11409*
X20030Y11371*
X20312*
Y11654*
G37*
G36*
X20412D02*
Y11371D01*
X20695*
X20690Y11409*
X20656Y11491*
X20602Y11561*
X20532Y11615*
X20450Y11649*
X20412Y11654*
G37*
G36*
X32656D02*
Y11371D01*
X32939*
X32934Y11409*
X32900Y11491*
X32846Y11561*
X32776Y11615*
X32694Y11649*
X32656Y11654*
G37*
G36*
X44900D02*
Y11371D01*
X45183*
X45178Y11409*
X45144Y11491*
X45090Y11561*
X45020Y11615*
X44938Y11649*
X44900Y11654*
G37*
G36*
X23761Y11658D02*
X23089D01*
Y11474*
X22839*
Y11509*
X22829Y11554*
X22804Y11593*
X22765Y11619*
X22719Y11628*
X22399*
X22353Y11619*
X22314Y11593*
X22289Y11554*
X22280Y11509*
Y11208*
X22289Y11162*
X22314Y11124*
X22353Y11098*
X22399Y11089*
X22719*
X22765Y11098*
X22804Y11124*
X22829Y11162*
X22831Y11168*
X23089*
Y10985*
X23545*
X23908Y10623*
X23957Y10590*
X24016Y10578*
X28559*
X29699Y9437*
Y9041*
X29695Y9038*
X29647Y8966*
X29630Y8880*
Y8250*
X29647Y8165*
X29695Y8093*
X29767Y8045*
X29852Y8028*
X29937Y8045*
X30010Y8093*
X30058Y8165*
X30075Y8250*
Y8880*
X30058Y8966*
X30010Y9038*
X30005Y9041*
Y9500*
X29994Y9559*
X29961Y9609*
X28730Y10839*
X28681Y10872*
X28622Y10884*
X24079*
X23761Y11201*
Y11658*
G37*
G36*
X44800Y11654D02*
X44763Y11649D01*
X44681Y11615*
X44611Y11561*
X44557Y11491*
X44523Y11409*
X44518Y11371*
X44800*
Y11654*
G37*
G36*
X38619D02*
X38582Y11649D01*
X38500Y11615*
X38430Y11561*
X38376Y11491*
X38342Y11409*
X38337Y11371*
X38619*
Y11654*
G37*
G36*
X38719D02*
Y11371D01*
X39002*
X38997Y11409*
X38963Y11491*
X38909Y11561*
X38839Y11615*
X38757Y11649*
X38719Y11654*
G37*
G36*
X26375Y11271D02*
X26093D01*
X26098Y11234*
X26132Y11152*
X26185Y11082*
X26256Y11028*
X26337Y10994*
X26375Y10989*
Y11271*
G37*
G36*
X26758D02*
X26475D01*
Y10989*
X26513Y10994*
X26595Y11028*
X26665Y11082*
X26719Y11152*
X26753Y11234*
X26758Y11271*
G37*
G36*
X20695D02*
X20412D01*
Y10989*
X20450Y10994*
X20532Y11028*
X20602Y11082*
X20656Y11152*
X20690Y11234*
X20695Y11271*
G37*
G36*
X32902Y9093D02*
Y8615D01*
X33075*
Y8880*
X33058Y8966*
X33010Y9038*
X32937Y9086*
X32902Y9093*
G37*
G36*
X20312Y11271D02*
X20030D01*
X20035Y11234*
X20069Y11152*
X20122Y11082*
X20193Y11028*
X20274Y10994*
X20312Y10989*
Y11271*
G37*
G36*
X32556D02*
X32274D01*
X32279Y11234*
X32313Y11152*
X32367Y11082*
X32437Y11028*
X32519Y10994*
X32556Y10989*
Y11271*
G37*
G36*
X44800D02*
X44518D01*
X44523Y11234*
X44557Y11152*
X44611Y11082*
X44681Y11028*
X44763Y10994*
X44800Y10989*
Y11271*
G37*
G36*
X45183D02*
X44900D01*
Y10989*
X44938Y10994*
X45020Y11028*
X45090Y11082*
X45144Y11152*
X45178Y11234*
X45183Y11271*
G37*
G36*
X39002D02*
X38719D01*
Y10989*
X38757Y10994*
X38839Y11028*
X38909Y11082*
X38963Y11152*
X38997Y11234*
X39002Y11271*
G37*
G36*
X32939D02*
X32656D01*
Y10989*
X32694Y10994*
X32776Y11028*
X32846Y11082*
X32900Y11152*
X32934Y11234*
X32939Y11271*
G37*
G36*
X38619D02*
X38337D01*
X38342Y11234*
X38376Y11152*
X38430Y11082*
X38500Y11028*
X38582Y10994*
X38619Y10989*
Y11271*
G37*
G36*
X42233Y6609D02*
X42173Y6601D01*
X42069Y6559*
X41980Y6490*
X41912Y6402*
X41870Y6298*
X41862Y6237*
X42233*
Y6609*
G37*
G36*
X12147Y3122D02*
X11704D01*
Y2678*
X12147*
Y3122*
G37*
G36*
X13104D02*
X12662D01*
X12673Y3043*
X12722Y2923*
X12801Y2820*
X12905Y2740*
X13025Y2691*
X13104Y2680*
Y3122*
G37*
G36*
X11604D02*
X11160D01*
Y2678*
X11604*
Y3122*
G37*
G36*
X20244Y3638D02*
X20115Y3621D01*
X19995Y3571*
X19892Y3492*
X19813Y3389*
X19763Y3269*
X19746Y3140*
X19763Y3011*
X19813Y2891*
X19892Y2788*
X19995Y2709*
X20115Y2659*
X20244Y2642*
X20373Y2659*
X20493Y2709*
X20596Y2788*
X20675Y2891*
X20725Y3011*
X20742Y3140*
X20725Y3269*
X20675Y3389*
X20596Y3492*
X20493Y3571*
X20373Y3621*
X20244Y3638*
G37*
G36*
X17738Y3633D02*
X16750D01*
Y2646*
X17738*
Y3633*
G37*
G36*
X13645Y3122D02*
X13204D01*
Y2680*
X13282Y2691*
X13403Y2740*
X13506Y2820*
X13585Y2923*
X13635Y3043*
X13645Y3122*
G37*
G36*
X4556Y3626D02*
X4113D01*
Y3182*
X4556*
Y3626*
G37*
G36*
X5100D02*
X4656D01*
Y3182*
X5100*
Y3626*
G37*
G36*
X32693Y3228D02*
X32196D01*
Y3056*
X32480*
X32565Y3073*
X32638Y3121*
X32686Y3193*
X32693Y3228*
G37*
G36*
X33071Y3007D02*
X32983Y2990D01*
X32969Y2980*
X32819*
X32804Y2990*
X32717Y3007*
X32629Y2990*
X32614Y2980*
X32570*
X32565Y2984*
X32480Y3000*
X31811*
X31726Y2984*
X31654Y2935*
X31606Y2863*
X31589Y2778*
X31606Y2693*
X31654Y2621*
X31726Y2573*
X31811Y2556*
X32480*
X32565Y2573*
X32570Y2576*
X32614*
X32629Y2566*
X32692Y2554*
Y2503*
X32629Y2490*
X32614Y2480*
X32570*
X32565Y2484*
X32480Y2500*
X31811*
X31726Y2484*
X31654Y2435*
X31606Y2363*
X31589Y2278*
X31606Y2193*
X31654Y2121*
X31726Y2073*
X31811Y2056*
X32480*
X32565Y2073*
X32570Y2076*
X32614*
X32629Y2066*
X32717Y2049*
X32804Y2066*
X32819Y2076*
X32969*
X32983Y2066*
X33071Y2049*
X33159Y2066*
X33233Y2116*
X33283Y2190*
X33300Y2278*
X33283Y2366*
X33233Y2440*
X33159Y2490*
X33095Y2503*
Y2554*
X33159Y2566*
X33233Y2616*
X33283Y2690*
X33300Y2778*
X33283Y2866*
X33233Y2940*
X33159Y2990*
X33071Y3007*
G37*
G36*
X32096Y3228D02*
X31599D01*
X31606Y3193*
X31654Y3121*
X31726Y3073*
X31811Y3056*
X32096*
Y3228*
G37*
G36*
X28898Y1000D02*
X28613D01*
Y828*
X29110*
X29103Y863*
X29055Y935*
X28983Y984*
X28898Y1000*
G37*
G36*
Y1500D02*
X28228D01*
X28143Y1484*
X28071Y1435*
X28023Y1363*
X28006Y1278*
X28023Y1193*
X28071Y1121*
X28143Y1073*
X28228Y1056*
X28898*
X28983Y1073*
X29055Y1121*
X29103Y1193*
X29120Y1278*
X29103Y1363*
X29055Y1435*
X28983Y1484*
X28898Y1500*
G37*
G36*
X28513Y1000D02*
X28228D01*
X28143Y984*
X28071Y935*
X28023Y863*
X28016Y828*
X28513*
Y1000*
G37*
G36*
Y728D02*
X28016D01*
X28023Y693*
X28071Y621*
X28143Y573*
X28228Y556*
X28513*
Y728*
G37*
G36*
X29110D02*
X28613D01*
Y556*
X28898*
X28983Y573*
X29055Y621*
X29103Y693*
X29110Y728*
G37*
G36*
X32480Y2000D02*
X31811D01*
X31726Y1984*
X31654Y1935*
X31606Y1863*
X31589Y1778*
X31606Y1693*
X31654Y1621*
X31726Y1573*
X31811Y1556*
X32480*
X32565Y1573*
X32638Y1621*
X32686Y1693*
X32703Y1778*
X32686Y1863*
X32638Y1935*
X32565Y1984*
X32480Y2000*
G37*
G36*
X6598Y3082D02*
X6156D01*
Y2641*
X6235Y2651*
X6355Y2701*
X6458Y2780*
X6538Y2883*
X6587Y3004*
X6598Y3082*
G37*
G36*
X18744Y3638D02*
X18615Y3621D01*
X18495Y3571*
X18392Y3492*
X18313Y3389*
X18263Y3269*
X18246Y3140*
X18263Y3011*
X18313Y2891*
X18392Y2788*
X18495Y2709*
X18615Y2659*
X18744Y2642*
X18873Y2659*
X18993Y2709*
X19096Y2788*
X19175Y2891*
X19225Y3011*
X19242Y3140*
X19225Y3269*
X19175Y3389*
X19096Y3492*
X18993Y3571*
X18873Y3621*
X18744Y3638*
G37*
G36*
X6056Y3082D02*
X5615D01*
X5625Y3004*
X5675Y2883*
X5754Y2780*
X5857Y2701*
X5977Y2651*
X6056Y2641*
Y3082*
G37*
G36*
X4556D02*
X4113D01*
Y2639*
X4556*
Y3082*
G37*
G36*
X5100D02*
X4656D01*
Y2639*
X5100*
Y3082*
G37*
G36*
X6056Y3624D02*
X5977Y3613D01*
X5857Y3564*
X5754Y3484*
X5675Y3381*
X5625Y3261*
X5615Y3182*
X6056*
Y3624*
G37*
G36*
X41233Y6137D02*
X40862D01*
X40870Y6077*
X40912Y5973*
X40980Y5885*
X41069Y5816*
X41173Y5774*
X41233Y5766*
Y6137*
G37*
G36*
X41705D02*
X41333D01*
Y5766*
X41394Y5774*
X41498Y5816*
X41586Y5885*
X41655Y5973*
X41697Y6077*
X41705Y6137*
G37*
G36*
X32852Y7213D02*
X32767Y7196D01*
X32695Y7148*
X32647Y7076*
X32630Y6991*
Y6361*
X32647Y6276*
X32650Y6271*
Y6207*
X32640Y6193*
X32623Y6105*
X32640Y6017*
X32650Y6003*
Y5853*
X32640Y5838*
X32623Y5750*
X32640Y5663*
X32690Y5588*
X32765Y5539*
X32852Y5521*
X32940Y5539*
X33015Y5588*
X33064Y5663*
X33082Y5750*
X33064Y5838*
X33055Y5853*
Y6003*
X33064Y6017*
X33082Y6105*
X33064Y6193*
X33055Y6207*
Y6271*
X33058Y6276*
X33075Y6361*
Y6991*
X33058Y7076*
X33010Y7148*
X32937Y7196*
X32852Y7213*
G37*
G36*
X32480Y4500D02*
X31811D01*
X31726Y4484*
X31654Y4435*
X31606Y4363*
X31589Y4278*
X31606Y4193*
X31654Y4121*
X31726Y4073*
X31811Y4056*
X32480*
X32565Y4073*
X32638Y4121*
X32686Y4193*
X32703Y4278*
X32686Y4363*
X32638Y4435*
X32565Y4484*
X32480Y4500*
G37*
G36*
X33071Y5007D02*
X32983Y4990D01*
X32969Y4980*
X32819*
X32804Y4990*
X32717Y5007*
X32629Y4990*
X32614Y4980*
X32570*
X32565Y4984*
X32480Y5000*
X31811*
X31726Y4984*
X31654Y4935*
X31606Y4863*
X31589Y4778*
X31606Y4693*
X31654Y4621*
X31726Y4573*
X31811Y4556*
X32480*
X32565Y4573*
X32570Y4576*
X32614*
X32629Y4566*
X32717Y4549*
X32804Y4566*
X32819Y4576*
X32969*
X32983Y4566*
X33071Y4549*
X33159Y4566*
X33233Y4616*
X33283Y4690*
X33300Y4778*
X33283Y4866*
X33233Y4940*
X33159Y4990*
X33071Y5007*
G37*
G36*
X42233Y6137D02*
X41862D01*
X41870Y6077*
X41912Y5973*
X41980Y5885*
X42069Y5816*
X42173Y5774*
X42233Y5766*
Y6137*
G37*
G36*
X40240Y6230D02*
X40011D01*
Y6010*
X40121*
X40167Y6019*
X40205Y6045*
X40231Y6083*
X40240Y6129*
Y6230*
G37*
G36*
X33921Y7876D02*
X33402D01*
Y7705*
X33411Y7660*
X33436Y7622*
X33455Y7609*
Y7553*
X33436Y7541*
X33411Y7502*
X33402Y7457*
Y7016*
X33411Y6971*
X33436Y6933*
X33459Y6918*
Y6768*
X33449Y6754*
X33432Y6666*
X33449Y6578*
X33459Y6564*
Y6414*
X33449Y6399*
X33432Y6312*
X33449Y6224*
X33499Y6149*
X33574Y6100*
X33661Y6082*
X33749Y6100*
X33824Y6149*
X33873Y6224*
X33891Y6312*
X33873Y6399*
X33864Y6414*
Y6564*
X33873Y6578*
X33891Y6666*
X33873Y6754*
X33864Y6768*
Y6918*
X33887Y6933*
X33912Y6971*
X33921Y7016*
Y7457*
X33912Y7502*
X33887Y7541*
X33868Y7553*
Y7609*
X33887Y7622*
X33912Y7660*
X33921Y7705*
Y7876*
G37*
G36*
X39911Y6230D02*
X39681D01*
Y6129*
X39690Y6083*
X39716Y6045*
X39755Y6019*
X39800Y6010*
X39911*
Y6230*
G37*
G36*
X42705Y6137D02*
X42333D01*
Y5766*
X42394Y5774*
X42498Y5816*
X42586Y5885*
X42655Y5973*
X42697Y6077*
X42705Y6137*
G37*
G36*
X32352Y7213D02*
X32267Y7196D01*
X32195Y7148*
X32147Y7076*
X32130Y6991*
Y6361*
X32147Y6276*
X32195Y6203*
X32199Y6201*
Y6038*
X32053Y5891*
X32022Y5902*
X32005Y5914*
Y6201*
X32010Y6203*
X32058Y6276*
X32075Y6361*
Y6991*
X32058Y7076*
X32010Y7148*
X31937Y7196*
X31852Y7213*
X31767Y7196*
X31695Y7148*
X31647Y7076*
X31630Y6991*
Y6361*
X31647Y6276*
X31695Y6203*
X31699Y6201*
Y5971*
X31542Y5813*
X31492Y5834*
Y6191*
X31510Y6203*
X31558Y6276*
X31575Y6361*
Y6991*
X31558Y7076*
X31510Y7148*
X31437Y7196*
X31352Y7213*
X31267Y7196*
X31195Y7148*
X31147Y7076*
X31130Y6991*
Y6361*
X31147Y6276*
X31186Y6218*
Y5851*
X31053Y5718*
X31022Y5729*
X31005Y5741*
Y6201*
X31010Y6203*
X31058Y6276*
X31075Y6361*
Y6991*
X31058Y7076*
X31010Y7148*
X30937Y7196*
X30852Y7213*
X30767Y7196*
X30695Y7148*
X30647Y7076*
X30630Y6991*
Y6361*
X30647Y6276*
X30695Y6203*
X30699Y6201*
Y5798*
X30543Y5641*
X30497Y5666*
X30505Y5707*
Y6201*
X30510Y6203*
X30558Y6276*
X30575Y6361*
Y6991*
X30558Y7076*
X30510Y7148*
X30437Y7196*
X30352Y7213*
X30267Y7196*
X30195Y7148*
X30147Y7076*
X30130Y6991*
Y6361*
X30147Y6276*
X30195Y6203*
X30199Y6201*
Y5770*
X30043Y5614*
X29997Y5639*
X30005Y5679*
Y6201*
X30010Y6203*
X30058Y6276*
X30075Y6361*
Y6991*
X30058Y7076*
X30010Y7148*
X29937Y7196*
X29852Y7213*
X29767Y7196*
X29695Y7148*
X29647Y7076*
X29630Y6991*
Y6361*
X29647Y6276*
X29695Y6203*
X29699Y6201*
Y5742*
X29569Y5612*
X29523Y5631*
Y6224*
X29558Y6276*
X29575Y6361*
Y6991*
X29558Y7076*
X29510Y7148*
X29437Y7196*
X29352Y7213*
X29267Y7196*
X29195Y7148*
X29147Y7076*
X29130Y6991*
Y6361*
X29147Y6276*
X29195Y6203*
X29217Y6189*
Y4967*
X29181Y4931*
X29058*
X29055Y4935*
X28983Y4984*
X28898Y5000*
X28228*
X28143Y4984*
X28071Y4935*
X28023Y4863*
X28006Y4778*
X28023Y4693*
X28071Y4621*
X28143Y4573*
X28228Y4556*
X28898*
X28983Y4573*
X29055Y4621*
X29058Y4625*
X29244*
X29303Y4637*
X29352Y4670*
X29407Y4725*
X29453Y4706*
Y4574*
X29311Y4431*
X29058*
X29055Y4435*
X28983Y4484*
X28898Y4500*
X28228*
X28143Y4484*
X28071Y4435*
X28023Y4363*
X28006Y4278*
X28023Y4193*
X28071Y4121*
X28143Y4073*
X28228Y4056*
X28898*
X28983Y4073*
X29055Y4121*
X29058Y4125*
X29222*
X29241Y4079*
X29103Y3940*
X29055Y3935*
X28983Y3984*
X28898Y4000*
X28228*
X28143Y3984*
X28071Y3935*
X28023Y3863*
X28006Y3778*
X28023Y3693*
X28071Y3621*
X28143Y3573*
X28228Y3556*
X28898*
X28983Y3573*
X29055Y3621*
X29058Y3625*
X29157*
X29215Y3637*
X29265Y3670*
X29854Y4259*
X29907Y4241*
X29910Y4219*
X29122Y3431*
X29058*
X29055Y3435*
X28983Y3484*
X28898Y3500*
X28228*
X28143Y3484*
X28071Y3435*
X28023Y3363*
X28006Y3278*
X28023Y3193*
X28071Y3121*
X28143Y3073*
X28228Y3056*
X28898*
X28983Y3073*
X29055Y3121*
X29058Y3125*
X29185*
X29244Y3137*
X29293Y3170*
X30116Y3993*
X30162Y3973*
Y3904*
X29189Y2931*
X29058*
X29055Y2935*
X28983Y2984*
X28898Y3000*
X28228*
X28143Y2984*
X28071Y2935*
X28023Y2863*
X28006Y2778*
X28023Y2693*
X28071Y2621*
X28143Y2573*
X28228Y2556*
X28898*
X28983Y2573*
X29055Y2621*
X29058Y2625*
X29252*
X29311Y2637*
X29360Y2670*
X30388Y3697*
X30438Y3677*
Y3613*
X29256Y2431*
X29058*
X29055Y2435*
X28983Y2484*
X28898Y2500*
X28228*
X28143Y2484*
X28071Y2435*
X28023Y2363*
X28006Y2278*
X28023Y2193*
X28071Y2121*
X28143Y2073*
X28228Y2056*
X28898*
X28983Y2073*
X29055Y2121*
X29058Y2125*
X29319*
X29377Y2137*
X29427Y2170*
X30642Y3385*
X30695Y3367*
X30699Y3339*
X29291Y1931*
X29058*
X29055Y1935*
X28983Y1984*
X28898Y2000*
X28228*
X28143Y1984*
X28071Y1935*
X28023Y1863*
X28006Y1778*
X28023Y1693*
X28071Y1621*
X28143Y1573*
X28228Y1556*
X28898*
X28983Y1573*
X29055Y1621*
X29058Y1625*
X29354*
X29413Y1637*
X29462Y1670*
X30974Y3182*
X31007Y3231*
X31019Y3290*
Y4425*
X32461Y5866*
X32494Y5916*
X32505Y5974*
Y6201*
X32510Y6203*
X32558Y6276*
X32575Y6361*
Y6991*
X32558Y7076*
X32510Y7148*
X32437Y7196*
X32352Y7213*
G37*
G36*
X11604Y3665D02*
X11160D01*
Y3222*
X11604*
Y3665*
G37*
G36*
X12147D02*
X11704D01*
Y3222*
X12147*
Y3665*
G37*
G36*
X33961Y3481D02*
X33751D01*
Y3193*
X33843*
X33888Y3201*
X33926Y3227*
X33952Y3265*
X33961Y3311*
Y3481*
G37*
G36*
X6156Y3624D02*
Y3182D01*
X6598*
X6587Y3261*
X6538Y3381*
X6458Y3484*
X6355Y3564*
X6235Y3613*
X6156Y3624*
G37*
G36*
X33651Y3481D02*
X33441D01*
Y3311*
X33450Y3265*
X33476Y3227*
X33514Y3201*
X33559Y3193*
X33651*
Y3481*
G37*
G36*
X13104Y3663D02*
X13025Y3653D01*
X12905Y3603*
X12801Y3524*
X12722Y3421*
X12673Y3301*
X12662Y3222*
X13104*
Y3663*
G37*
G36*
X32480Y4000D02*
X31811D01*
X31726Y3984*
X31654Y3935*
X31606Y3863*
X31589Y3778*
X31606Y3693*
X31654Y3621*
X31726Y3573*
X31811Y3556*
X32480*
X32565Y3573*
X32638Y3621*
X32686Y3693*
X32703Y3778*
X32686Y3863*
X32638Y3935*
X32565Y3984*
X32480Y4000*
G37*
G36*
X33701Y5375D02*
X33613Y5357D01*
X33539Y5307*
X33489Y5233*
X33471Y5145*
X33489Y5057*
X33498Y5043*
Y4893*
X33489Y4879*
X33471Y4791*
X33489Y4703*
X33498Y4689*
Y4539*
X33476Y4524*
X33450Y4486*
X33441Y4440*
Y4000*
X33450Y3954*
X33476Y3916*
X33494Y3904*
Y3847*
X33476Y3835*
X33450Y3797*
X33441Y3751*
Y3581*
X33961*
Y3751*
X33952Y3797*
X33926Y3835*
X33907Y3847*
Y3904*
X33926Y3916*
X33952Y3954*
X33961Y4000*
Y4440*
X33952Y4486*
X33926Y4524*
X33903Y4539*
Y4689*
X33913Y4703*
X33930Y4791*
X33913Y4879*
X33903Y4893*
Y5043*
X33913Y5057*
X33930Y5145*
X33913Y5233*
X33863Y5307*
X33789Y5357*
X33701Y5375*
G37*
G36*
X32480Y3500D02*
X32196D01*
Y3328*
X32693*
X32686Y3363*
X32638Y3435*
X32565Y3484*
X32480Y3500*
G37*
G36*
X13204Y3663D02*
Y3222D01*
X13645*
X13635Y3301*
X13585Y3421*
X13506Y3524*
X13403Y3603*
X13282Y3653*
X13204Y3663*
G37*
G36*
X32096Y3500D02*
X31811D01*
X31726Y3484*
X31654Y3435*
X31606Y3363*
X31599Y3328*
X32096*
Y3500*
G37*
G36*
X29943Y11658D02*
X29270D01*
Y11474*
X29059*
Y11509*
X29050Y11554*
X29024Y11593*
X28986Y11619*
X28940Y11628*
X28619*
X28574Y11619*
X28535Y11593*
X28509Y11554*
X28500Y11509*
Y11208*
X28509Y11162*
X28535Y11124*
X28574Y11098*
X28619Y11089*
X28940*
X28986Y11098*
X29024Y11124*
X29050Y11162*
X29051Y11168*
X29270*
Y10985*
X29943*
Y11095*
X29989Y11114*
X30199Y10904*
Y9041*
X30195Y9038*
X30147Y8966*
X30130Y8880*
Y8250*
X30147Y8165*
X30195Y8093*
X30267Y8045*
X30352Y8028*
X30437Y8045*
X30510Y8093*
X30558Y8165*
X30575Y8250*
Y8880*
X30558Y8966*
X30510Y9038*
X30505Y9041*
Y10967*
X30494Y11026*
X30461Y11075*
X30106Y11430*
X30057Y11463*
X29998Y11474*
X29943*
Y11658*
G37*
G36*
X38720Y18001D02*
X38581Y17982D01*
X38452Y17929*
X38340Y17843*
X38255Y17732*
X38201Y17602*
X38183Y17463*
X38201Y17324*
X38255Y17194*
X38340Y17083*
X38421Y17021*
Y16915*
X37702Y16196*
X37654Y16134*
X37624Y16062*
X37614Y15984*
Y14803*
X37624Y14726*
X37654Y14653*
X37702Y14591*
X38231Y14062*
X38293Y14015*
X38323Y14002*
X38365Y13985*
X38442Y13975*
X38514*
X38582Y13947*
X38669Y13935*
X38757Y13947*
X38839Y13980*
X38909Y14034*
X38963Y14105*
X38997Y14186*
X39008Y14274*
X38997Y14362*
X38963Y14444*
X38909Y14514*
X38839Y14568*
X38757Y14602*
X38669Y14613*
X38582Y14602*
X38551Y14589*
X38213Y14927*
Y15860*
X38932Y16580*
X38980Y16642*
X39010Y16714*
X39020Y16791*
Y17021*
X39101Y17083*
X39186Y17194*
X39240Y17324*
X39258Y17463*
X39240Y17602*
X39186Y17732*
X39101Y17843*
X38989Y17929*
X38860Y17982*
X38720Y18001*
G37*
G36*
X44862D02*
X44723Y17982D01*
X44593Y17929*
X44482Y17843*
X44397Y17732*
X44343Y17602*
X44325Y17463*
X44343Y17324*
X44397Y17194*
X44482Y17083*
X44563Y17021*
Y16819*
X43922Y16179*
X43875Y16117*
X43845Y16045*
X43834Y15967*
Y14803*
X43845Y14726*
X43875Y14653*
X43922Y14591*
X44451Y14062*
X44513Y14015*
X44585Y13985*
X44663Y13975*
X44695*
X44763Y13947*
X44850Y13935*
X44938Y13947*
X45020Y13980*
X45090Y14034*
X45144Y14105*
X45178Y14186*
X45190Y14274*
X45178Y14362*
X45144Y14444*
X45090Y14514*
X45020Y14568*
X44938Y14602*
X44850Y14613*
X44763Y14602*
X44760Y14601*
X44433Y14927*
Y15843*
X45074Y16484*
X45121Y16546*
X45151Y16618*
X45162Y16695*
Y17021*
X45242Y17083*
X45328Y17194*
X45382Y17324*
X45400Y17463*
X45382Y17602*
X45328Y17732*
X45242Y17843*
X45131Y17929*
X45001Y17982*
X44862Y18001*
G37*
G36*
X32579D02*
X32440Y17982D01*
X32310Y17929*
X32199Y17843*
X32113Y17732*
X32059Y17602*
X32041Y17463*
X32059Y17324*
X32113Y17194*
X32199Y17083*
X32310Y16997*
X32338Y16986*
Y16751*
X31678Y16090*
X31630Y16028*
X31601Y15956*
X31590Y15879*
Y14803*
X31601Y14726*
X31630Y14653*
X31678Y14591*
X32207Y14062*
X32269Y14015*
X32341Y13985*
X32419Y13975*
X32451*
X32519Y13947*
X32606Y13935*
X32694Y13947*
X32776Y13980*
X32846Y14034*
X32900Y14105*
X32934Y14186*
X32945Y14274*
X32934Y14362*
X32900Y14444*
X32846Y14514*
X32776Y14568*
X32694Y14602*
X32606Y14613*
X32519Y14602*
X32516Y14601*
X32189Y14927*
Y15755*
X32850Y16415*
X32897Y16477*
X32927Y16549*
X32937Y16627*
Y17066*
X32959Y17083*
X33044Y17194*
X33098Y17324*
X33116Y17463*
X33098Y17602*
X33044Y17732*
X32959Y17843*
X32848Y17929*
X32718Y17982*
X32579Y18001*
G37*
G36*
X20295D02*
X20156Y17982D01*
X20026Y17929*
X19915Y17843*
X19830Y17732*
X19776Y17602*
X19758Y17463*
X19776Y17324*
X19830Y17194*
X19915Y17083*
X19996Y17021*
Y16688*
X19434Y16126*
X19386Y16064*
X19356Y15991*
X19346Y15914*
Y14786*
X19356Y14708*
X19386Y14636*
X19434Y14574*
X19946Y14062*
X20008Y14015*
X20038Y14002*
X20080Y13985*
X20157Y13975*
X20206*
X20274Y13947*
X20362Y13935*
X20450Y13947*
X20532Y13980*
X20602Y14034*
X20656Y14105*
X20690Y14186*
X20701Y14274*
X20690Y14362*
X20656Y14444*
X20602Y14514*
X20532Y14568*
X20450Y14602*
X20362Y14613*
X20274Y14602*
X20260Y14596*
X19945Y14910*
Y15790*
X20507Y16352*
X20555Y16414*
X20584Y16486*
X20595Y16564*
Y17021*
X20675Y17083*
X20761Y17194*
X20815Y17324*
X20833Y17463*
X20815Y17602*
X20761Y17732*
X20675Y17843*
X20564Y17929*
X20434Y17982*
X20295Y18001*
G37*
G36*
X26437D02*
X26298Y17982D01*
X26168Y17929*
X26057Y17843*
X25971Y17732*
X25918Y17602*
X25899Y17463*
X25918Y17324*
X25971Y17194*
X26057Y17083*
X26168Y16997*
X26197Y16986*
Y16918*
X25497Y16218*
X25449Y16156*
X25419Y16084*
X25409Y16006*
Y14628*
X25419Y14551*
X25449Y14479*
X25497Y14417*
X25851Y14062*
X25913Y14015*
X25986Y13985*
X26063Y13975*
X26269*
X26337Y13947*
X26425Y13935*
X26513Y13947*
X26595Y13980*
X26665Y14034*
X26719Y14105*
X26753Y14186*
X26764Y14274*
X26753Y14362*
X26719Y14444*
X26665Y14514*
X26595Y14568*
X26513Y14602*
X26425Y14613*
X26337Y14602*
X26269Y14574*
X26187*
X26008Y14752*
Y15882*
X26708Y16582*
X26755Y16644*
X26768Y16674*
X26785Y16716*
X26795Y16794*
Y17066*
X26817Y17083*
X26903Y17194*
X26956Y17324*
X26975Y17463*
X26956Y17602*
X26903Y17732*
X26817Y17843*
X26706Y17929*
X26576Y17982*
X26437Y18001*
G37*
G36*
X23484D02*
X23345Y17982D01*
X23215Y17929*
X23104Y17843*
X23019Y17732*
X22965Y17602*
X22947Y17463*
X22965Y17324*
X23019Y17194*
X23104Y17083*
X23185Y17021*
Y16617*
X23195Y16539*
X23225Y16467*
X23273Y16405*
X23834Y15843*
Y14792*
X23616Y14574*
X23581*
X23513Y14602*
X23425Y14613*
X23337Y14602*
X23256Y14568*
X23185Y14514*
X23132Y14444*
X23098Y14362*
X23086Y14274*
X23098Y14186*
X23132Y14105*
X23185Y14034*
X23256Y13980*
X23337Y13947*
X23425Y13935*
X23513Y13947*
X23581Y13975*
X23740*
X23818Y13985*
X23890Y14015*
X23952Y14062*
X24346Y14456*
X24393Y14518*
X24406Y14548*
X24423Y14590*
X24433Y14668*
Y15967*
X24423Y16045*
X24406Y16087*
X24393Y16117*
X24346Y16179*
X23784Y16741*
Y17021*
X23864Y17083*
X23950Y17194*
X24004Y17324*
X24022Y17463*
X24004Y17602*
X23950Y17732*
X23864Y17843*
X23753Y17929*
X23623Y17982*
X23484Y18001*
G37*
G36*
X35768D02*
X35629Y17982D01*
X35499Y17929*
X35388Y17843*
X35302Y17732*
X35248Y17602*
X35230Y17463*
X35248Y17324*
X35302Y17194*
X35388Y17083*
X35468Y17021*
Y16695*
X35479Y16618*
X35508Y16546*
X35556Y16484*
X36079Y15961*
Y14871*
X35821Y14613*
X35672*
X35669*
X35582Y14602*
X35500Y14568*
X35429Y14514*
X35376Y14444*
X35342Y14362*
X35330Y14274*
X35342Y14186*
X35376Y14105*
X35429Y14034*
X35500Y13980*
X35582Y13947*
X35669Y13935*
X35757Y13947*
X35839Y13980*
X35883Y14014*
X35945*
X36022Y14024*
X36095Y14054*
X36157Y14102*
X36590Y14535*
X36637Y14597*
X36667Y14669*
X36677Y14747*
Y16085*
X36667Y16163*
X36637Y16235*
X36590Y16297*
X36067Y16819*
Y17021*
X36148Y17083*
X36233Y17194*
X36287Y17324*
X36305Y17463*
X36287Y17602*
X36233Y17732*
X36148Y17843*
X36037Y17929*
X35907Y17982*
X35768Y18001*
G37*
G36*
X17362Y15597D02*
X17274Y15586D01*
X17193Y15552*
X17122Y15498*
X17069Y15428*
X17035Y15346*
X17023Y15258*
X17035Y15171*
X17069Y15089*
X17122Y15019*
X17193Y14965*
X17274Y14931*
X17362Y14919*
X17450Y14931*
X17532Y14965*
X17602Y15019*
X17656Y15089*
X17690Y15171*
X17701Y15258*
X17690Y15346*
X17656Y15428*
X17602Y15498*
X17532Y15552*
X17450Y15586*
X17362Y15597*
G37*
G36*
X17343Y18001D02*
X17203Y17982D01*
X17074Y17929*
X16962Y17843*
X16877Y17732*
X16823Y17602*
X16805Y17463*
X16823Y17324*
X16877Y17194*
X16962Y17083*
X17043Y17021*
Y16695*
X17053Y16618*
X17083Y16546*
X17131Y16484*
X17771Y15843*
Y14910*
X17459Y14598*
X17450Y14602*
X17362Y14613*
X17274Y14602*
X17193Y14568*
X17122Y14514*
X17069Y14444*
X17035Y14362*
X17023Y14274*
X17035Y14186*
X17069Y14105*
X17122Y14034*
X17193Y13980*
X17274Y13947*
X17362Y13935*
X17450Y13947*
X17518Y13975*
X17559*
X17637Y13985*
X17709Y14015*
X17771Y14062*
X18283Y14574*
X18330Y14636*
X18343Y14666*
X18360Y14708*
X18370Y14786*
Y15967*
X18360Y16045*
X18343Y16087*
X18330Y16117*
X18283Y16179*
X17642Y16819*
Y17021*
X17723Y17083*
X17808Y17194*
X17862Y17324*
X17880Y17463*
X17862Y17602*
X17808Y17732*
X17723Y17843*
X17611Y17929*
X17482Y17982*
X17343Y18001*
G37*
G36*
X29626D02*
X29487Y17982D01*
X29357Y17929*
X29246Y17843*
X29160Y17732*
X29107Y17602*
X29088Y17463*
X29107Y17324*
X29160Y17194*
X29246Y17083*
X29327Y17021*
Y16735*
X29337Y16657*
X29367Y16585*
X29414Y16523*
X30016Y15922*
Y14780*
X29809Y14574*
X29762*
X29694Y14602*
X29606Y14613*
X29519Y14602*
X29437Y14568*
X29367Y14514*
X29313Y14444*
X29279Y14362*
X29267Y14274*
X29279Y14186*
X29313Y14105*
X29367Y14034*
X29437Y13980*
X29519Y13947*
X29606Y13935*
X29694Y13947*
X29762Y13975*
X29933*
X30011Y13985*
X30083Y14015*
X30145Y14062*
X30527Y14444*
X30574Y14506*
X30604Y14579*
X30614Y14656*
Y16046*
X30604Y16123*
X30574Y16195*
X30527Y16257*
X29925Y16859*
Y17021*
X30006Y17083*
X30092Y17194*
X30145Y17324*
X30164Y17463*
X30145Y17602*
X30092Y17732*
X30006Y17843*
X29895Y17929*
X29765Y17982*
X29626Y18001*
G37*
G36*
X41909D02*
X41770Y17982D01*
X41641Y17929*
X41529Y17843*
X41444Y17732*
X41390Y17602*
X41372Y17463*
X41390Y17324*
X41444Y17194*
X41529Y17083*
X41610Y17021*
Y16695*
X41620Y16618*
X41650Y16546*
X41698Y16484*
X42338Y15843*
Y14910*
X42003Y14575*
X41938Y14602*
X41850Y14613*
X41763Y14602*
X41681Y14568*
X41611Y14514*
X41557Y14444*
X41523Y14362*
X41511Y14274*
X41523Y14186*
X41557Y14105*
X41611Y14034*
X41681Y13980*
X41763Y13947*
X41850Y13935*
X41938Y13947*
X42006Y13975*
X42126*
X42203Y13985*
X42276Y14015*
X42338Y14062*
X42850Y14574*
X42897Y14636*
X42909Y14666*
X42927Y14708*
X42937Y14786*
Y15967*
X42927Y16045*
X42897Y16117*
X42850Y16179*
X42209Y16819*
Y17021*
X42290Y17083*
X42375Y17194*
X42429Y17324*
X42447Y17463*
X42429Y17602*
X42375Y17732*
X42290Y17843*
X42178Y17929*
X42049Y17982*
X41909Y18001*
G37*
G36*
X41184Y13636D02*
X41074D01*
Y13416*
X41303*
Y13517*
X41294Y13562*
X41268Y13601*
X41230Y13627*
X41184Y13636*
G37*
G36*
X16657Y13557D02*
X16546D01*
Y13337*
X16776*
Y13438*
X16766Y13484*
X16741Y13522*
X16702Y13548*
X16657Y13557*
G37*
G36*
X22509Y13636D02*
X22399D01*
X22353Y13627*
X22314Y13601*
X22289Y13562*
X22280Y13517*
Y13416*
X22509*
Y13636*
G37*
G36*
X16446Y13557D02*
X16336D01*
X16290Y13548*
X16251Y13522*
X16226Y13484*
X16217Y13438*
Y13337*
X16446*
Y13557*
G37*
G36*
X40974Y13316D02*
X40744D01*
Y13216*
X40753Y13170*
X40779Y13131*
X40818Y13106*
X40863Y13097*
X40974*
Y13316*
G37*
G36*
X41303D02*
X41074D01*
Y13097*
X41184*
X41230Y13106*
X41268Y13131*
X41294Y13170*
X41303Y13216*
Y13316*
G37*
G36*
X22719Y13636D02*
X22609D01*
Y13416*
X22839*
Y13517*
X22829Y13562*
X22804Y13601*
X22765Y13627*
X22719Y13636*
G37*
G36*
X35003D02*
X34893D01*
Y13416*
X35122*
Y13517*
X35113Y13562*
X35087Y13601*
X35048Y13627*
X35003Y13636*
G37*
G36*
X40974D02*
X40863D01*
X40818Y13627*
X40779Y13601*
X40753Y13562*
X40744Y13517*
Y13416*
X40974*
Y13636*
G37*
G36*
X34793D02*
X34682D01*
X34637Y13627*
X34598Y13601*
X34572Y13562*
X34563Y13517*
Y13416*
X34793*
Y13636*
G37*
G36*
X28730D02*
X28619D01*
X28574Y13627*
X28535Y13601*
X28509Y13562*
X28500Y13517*
Y13416*
X28730*
Y13636*
G37*
G36*
X28940D02*
X28830D01*
Y13416*
X29059*
Y13517*
X29050Y13562*
X29024Y13601*
X28986Y13627*
X28940Y13636*
G37*
G36*
X20362Y15597D02*
X20274Y15586D01*
X20193Y15552*
X20122Y15498*
X20069Y15428*
X20035Y15346*
X20023Y15258*
X20035Y15171*
X20069Y15089*
X20122Y15019*
X20193Y14965*
X20274Y14931*
X20362Y14919*
X20450Y14931*
X20532Y14965*
X20602Y15019*
X20656Y15089*
X20690Y15171*
X20701Y15258*
X20690Y15346*
X20656Y15428*
X20602Y15498*
X20532Y15552*
X20450Y15586*
X20362Y15597*
G37*
G36*
X39565Y19782D02*
X39452Y19767D01*
X39346Y19723*
X39255Y19654*
X39186Y19563*
X39142Y19457*
X39127Y19344*
Y18635*
X39142Y18522*
X39186Y18416*
X39255Y18325*
X39346Y18255*
X39452Y18212*
X39565Y18197*
X39679Y18212*
X39785Y18255*
X39875Y18325*
X39945Y18416*
X39989Y18522*
X40004Y18635*
Y19344*
X39989Y19457*
X39945Y19563*
X39875Y19654*
X39785Y19723*
X39679Y19767*
X39565Y19782*
G37*
G36*
X41065D02*
X40951Y19767D01*
X40845Y19723*
X40755Y19654*
X40685Y19563*
X40641Y19457*
X40626Y19344*
Y18635*
X40641Y18522*
X40685Y18416*
X40755Y18325*
X40845Y18255*
X40951Y18212*
X41065Y18197*
X41178Y18212*
X41284Y18255*
X41375Y18325*
X41444Y18416*
X41488Y18522*
X41503Y18635*
Y19344*
X41488Y19457*
X41444Y19563*
X41375Y19654*
X41284Y19723*
X41178Y19767*
X41065Y19782*
G37*
G36*
X34923D02*
X34809Y19767D01*
X34704Y19723*
X34613Y19654*
X34543Y19563*
X34499Y19457*
X34484Y19344*
Y18635*
X34499Y18522*
X34543Y18416*
X34613Y18325*
X34704Y18255*
X34809Y18212*
X34923Y18197*
X35036Y18212*
X35142Y18255*
X35233Y18325*
X35303Y18416*
X35346Y18522*
X35361Y18635*
Y19344*
X35346Y19457*
X35303Y19563*
X35233Y19654*
X35142Y19723*
X35036Y19767*
X34923Y19782*
G37*
G36*
X28781D02*
X28668Y19767D01*
X28562Y19723*
X28471Y19654*
X28401Y19563*
X28358Y19457*
X28343Y19344*
Y18635*
X28358Y18522*
X28401Y18416*
X28471Y18325*
X28562Y18255*
X28668Y18212*
X28781Y18197*
X28895Y18212*
X29000Y18255*
X29091Y18325*
X29161Y18416*
X29205Y18522*
X29220Y18635*
Y19344*
X29205Y19457*
X29161Y19563*
X29091Y19654*
X29000Y19723*
X28895Y19767*
X28781Y19782*
G37*
G36*
X33424D02*
X33310Y19767D01*
X33204Y19723*
X33114Y19654*
X33044Y19563*
X33000Y19457*
X32985Y19344*
Y18635*
X33000Y18522*
X33044Y18416*
X33114Y18325*
X33204Y18255*
X33310Y18212*
X33424Y18197*
X33537Y18212*
X33643Y18255*
X33734Y18325*
X33803Y18416*
X33847Y18522*
X33862Y18635*
Y19344*
X33847Y19457*
X33803Y19563*
X33734Y19654*
X33643Y19723*
X33537Y19767*
X33424Y19782*
G37*
G36*
X45707D02*
X45594Y19767D01*
X45488Y19723*
X45397Y19654*
X45327Y19563*
X45284Y19457*
X45269Y19344*
Y18635*
X45284Y18522*
X45327Y18416*
X45397Y18325*
X45488Y18255*
X45594Y18212*
X45707Y18197*
X45821Y18212*
X45926Y18255*
X46017Y18325*
X46087Y18416*
X46131Y18522*
X46145Y18635*
Y19344*
X46131Y19457*
X46087Y19563*
X46017Y19654*
X45926Y19723*
X45821Y19767*
X45707Y19782*
G37*
G36*
X35768Y20912D02*
X35652Y20901D01*
X35540Y20867*
X35437Y20812*
X35347Y20738*
X35273Y20648*
X35218Y20545*
X35184Y20433*
X35173Y20317*
X35184Y20201*
X35218Y20090*
X35273Y19987*
X35347Y19897*
X35437Y19823*
X35540Y19768*
X35652Y19734*
X35768Y19722*
X35884Y19734*
X35995Y19768*
X36098Y19823*
X36188Y19897*
X36262Y19987*
X36317Y20090*
X36351Y20201*
X36363Y20317*
X36351Y20433*
X36317Y20545*
X36262Y20648*
X36188Y20738*
X36098Y20812*
X35995Y20867*
X35884Y20901*
X35768Y20912*
G37*
G36*
X41909D02*
X41793Y20901D01*
X41682Y20867*
X41579Y20812*
X41489Y20738*
X41415Y20648*
X41360Y20545*
X41326Y20433*
X41314Y20317*
X41326Y20201*
X41360Y20090*
X41415Y19987*
X41489Y19897*
X41579Y19823*
X41682Y19768*
X41793Y19734*
X41909Y19722*
X42026Y19734*
X42137Y19768*
X42240Y19823*
X42330Y19897*
X42404Y19987*
X42459Y20090*
X42493Y20201*
X42504Y20317*
X42493Y20433*
X42459Y20545*
X42404Y20648*
X42330Y20738*
X42240Y20812*
X42137Y20867*
X42026Y20901*
X41909Y20912*
G37*
G36*
X29626D02*
X29510Y20901D01*
X29398Y20867*
X29295Y20812*
X29205Y20738*
X29131Y20648*
X29076Y20545*
X29042Y20433*
X29031Y20317*
X29042Y20201*
X29076Y20090*
X29131Y19987*
X29205Y19897*
X29295Y19823*
X29398Y19768*
X29510Y19734*
X29626Y19722*
X29742Y19734*
X29854Y19768*
X29957Y19823*
X30047Y19897*
X30121Y19987*
X30176Y20090*
X30210Y20201*
X30221Y20317*
X30210Y20433*
X30176Y20545*
X30121Y20648*
X30047Y20738*
X29957Y20812*
X29854Y20867*
X29742Y20901*
X29626Y20912*
G37*
G36*
X17343D02*
X17226Y20901D01*
X17115Y20867*
X17012Y20812*
X16922Y20738*
X16848Y20648*
X16793Y20545*
X16759Y20433*
X16748Y20317*
X16759Y20201*
X16793Y20090*
X16848Y19987*
X16922Y19897*
X17012Y19823*
X17115Y19768*
X17226Y19734*
X17343Y19722*
X17459Y19734*
X17570Y19768*
X17673Y19823*
X17763Y19897*
X17837Y19987*
X17892Y20090*
X17926Y20201*
X17938Y20317*
X17926Y20433*
X17892Y20545*
X17837Y20648*
X17763Y20738*
X17673Y20812*
X17570Y20867*
X17459Y20901*
X17343Y20912*
G37*
G36*
X23484D02*
X23368Y20901D01*
X23257Y20867*
X23154Y20812*
X23064Y20738*
X22990Y20648*
X22935Y20545*
X22901Y20433*
X22889Y20317*
X22901Y20201*
X22935Y20090*
X22990Y19987*
X23064Y19897*
X23154Y19823*
X23257Y19768*
X23368Y19734*
X23484Y19722*
X23600Y19734*
X23712Y19768*
X23815Y19823*
X23905Y19897*
X23979Y19987*
X24034Y20090*
X24068Y20201*
X24079Y20317*
X24068Y20433*
X24034Y20545*
X23979Y20648*
X23905Y20738*
X23815Y20812*
X23712Y20867*
X23600Y20901*
X23484Y20912*
G37*
G36*
X27282Y19782D02*
X27168Y19767D01*
X27063Y19723*
X26972Y19654*
X26902Y19563*
X26858Y19457*
X26843Y19344*
Y18635*
X26858Y18522*
X26902Y18416*
X26972Y18325*
X27063Y18255*
X27168Y18212*
X27282Y18197*
X27395Y18212*
X27501Y18255*
X27592Y18325*
X27662Y18416*
X27705Y18522*
X27720Y18635*
Y19344*
X27705Y19457*
X27662Y19563*
X27592Y19654*
X27501Y19723*
X27395Y19767*
X27282Y19782*
G37*
G36*
X32606Y15597D02*
X32519Y15586D01*
X32437Y15552*
X32367Y15498*
X32313Y15428*
X32279Y15346*
X32267Y15258*
X32279Y15171*
X32313Y15089*
X32367Y15019*
X32437Y14965*
X32519Y14931*
X32606Y14919*
X32694Y14931*
X32776Y14965*
X32846Y15019*
X32900Y15089*
X32934Y15171*
X32945Y15258*
X32934Y15346*
X32900Y15428*
X32846Y15498*
X32776Y15552*
X32694Y15586*
X32606Y15597*
G37*
G36*
X35669D02*
X35582Y15586D01*
X35500Y15552*
X35429Y15498*
X35376Y15428*
X35342Y15346*
X35330Y15258*
X35342Y15171*
X35376Y15089*
X35429Y15019*
X35500Y14965*
X35582Y14931*
X35669Y14919*
X35757Y14931*
X35839Y14965*
X35909Y15019*
X35963Y15089*
X35997Y15171*
X36008Y15258*
X35997Y15346*
X35963Y15428*
X35909Y15498*
X35839Y15552*
X35757Y15586*
X35669Y15597*
G37*
G36*
X29606D02*
X29519Y15586D01*
X29437Y15552*
X29367Y15498*
X29313Y15428*
X29279Y15346*
X29267Y15258*
X29279Y15171*
X29313Y15089*
X29367Y15019*
X29437Y14965*
X29519Y14931*
X29606Y14919*
X29694Y14931*
X29776Y14965*
X29846Y15019*
X29900Y15089*
X29934Y15171*
X29945Y15258*
X29934Y15346*
X29900Y15428*
X29846Y15498*
X29776Y15552*
X29694Y15586*
X29606Y15597*
G37*
G36*
X23425D02*
X23337Y15586D01*
X23256Y15552*
X23185Y15498*
X23132Y15428*
X23098Y15346*
X23086Y15258*
X23098Y15171*
X23132Y15089*
X23185Y15019*
X23256Y14965*
X23337Y14931*
X23425Y14919*
X23513Y14931*
X23595Y14965*
X23665Y15019*
X23719Y15089*
X23753Y15171*
X23764Y15258*
X23753Y15346*
X23719Y15428*
X23665Y15498*
X23595Y15552*
X23513Y15586*
X23425Y15597*
G37*
G36*
X26425D02*
X26337Y15586D01*
X26256Y15552*
X26185Y15498*
X26132Y15428*
X26098Y15346*
X26086Y15258*
X26098Y15171*
X26132Y15089*
X26185Y15019*
X26256Y14965*
X26337Y14931*
X26425Y14919*
X26513Y14931*
X26595Y14965*
X26665Y15019*
X26719Y15089*
X26753Y15171*
X26764Y15258*
X26753Y15346*
X26719Y15428*
X26665Y15498*
X26595Y15552*
X26513Y15586*
X26425Y15597*
G37*
G36*
X38669D02*
X38582Y15586D01*
X38500Y15552*
X38430Y15498*
X38376Y15428*
X38342Y15346*
X38330Y15258*
X38342Y15171*
X38376Y15089*
X38430Y15019*
X38500Y14965*
X38582Y14931*
X38669Y14919*
X38757Y14931*
X38839Y14965*
X38909Y15019*
X38963Y15089*
X38997Y15171*
X39008Y15258*
X38997Y15346*
X38963Y15428*
X38909Y15498*
X38839Y15552*
X38757Y15586*
X38669Y15597*
G37*
G36*
X21140Y19782D02*
X21027Y19767D01*
X20921Y19723*
X20830Y19654*
X20761Y19563*
X20717Y19457*
X20702Y19344*
Y18635*
X20717Y18522*
X20761Y18416*
X20830Y18325*
X20921Y18255*
X21027Y18212*
X21140Y18197*
X21254Y18212*
X21359Y18255*
X21450Y18325*
X21520Y18416*
X21564Y18522*
X21579Y18635*
Y19344*
X21564Y19457*
X21520Y19563*
X21450Y19654*
X21359Y19723*
X21254Y19767*
X21140Y19782*
G37*
G36*
X22639D02*
X22526Y19767D01*
X22420Y19723*
X22329Y19654*
X22260Y19563*
X22216Y19457*
X22201Y19344*
Y18635*
X22216Y18522*
X22260Y18416*
X22329Y18325*
X22420Y18255*
X22526Y18212*
X22639Y18197*
X22753Y18212*
X22859Y18255*
X22949Y18325*
X23019Y18416*
X23063Y18522*
X23078Y18635*
Y19344*
X23063Y19457*
X23019Y19563*
X22949Y19654*
X22859Y19723*
X22753Y19767*
X22639Y19782*
G37*
G36*
X16498D02*
X16384Y19767D01*
X16278Y19723*
X16188Y19654*
X16118Y19563*
X16074Y19457*
X16059Y19344*
Y18635*
X16074Y18522*
X16118Y18416*
X16188Y18325*
X16278Y18255*
X16384Y18212*
X16498Y18197*
X16611Y18212*
X16717Y18255*
X16808Y18325*
X16877Y18416*
X16921Y18522*
X16936Y18635*
Y19344*
X16921Y19457*
X16877Y19563*
X16808Y19654*
X16717Y19723*
X16611Y19767*
X16498Y19782*
G37*
G36*
X41850Y15597D02*
X41763Y15586D01*
X41681Y15552*
X41611Y15498*
X41557Y15428*
X41523Y15346*
X41511Y15258*
X41523Y15171*
X41557Y15089*
X41611Y15019*
X41681Y14965*
X41763Y14931*
X41850Y14919*
X41938Y14931*
X42020Y14965*
X42090Y15019*
X42144Y15089*
X42178Y15171*
X42190Y15258*
X42178Y15346*
X42144Y15428*
X42090Y15498*
X42020Y15552*
X41938Y15586*
X41850Y15597*
G37*
G36*
X44850D02*
X44763Y15586D01*
X44681Y15552*
X44611Y15498*
X44557Y15428*
X44523Y15346*
X44511Y15258*
X44523Y15171*
X44557Y15089*
X44611Y15019*
X44681Y14965*
X44763Y14931*
X44850Y14919*
X44938Y14931*
X45020Y14965*
X45090Y15019*
X45144Y15089*
X45178Y15171*
X45190Y15258*
X45178Y15346*
X45144Y15428*
X45090Y15498*
X45020Y15552*
X44938Y15586*
X44850Y15597*
G37*
G36*
X35122Y13316D02*
X34893D01*
Y13097*
X35003*
X35048Y13106*
X35087Y13131*
X35113Y13170*
X35122Y13216*
Y13316*
G37*
G36*
X32606Y12645D02*
X32519Y12633D01*
X32437Y12599*
X32367Y12545*
X32313Y12475*
X32279Y12393*
X32267Y12306*
X32279Y12218*
X32313Y12136*
X32367Y12066*
X32437Y12012*
X32519Y11978*
X32606Y11966*
X32694Y11978*
X32776Y12012*
X32846Y12066*
X32900Y12136*
X32934Y12218*
X32945Y12306*
X32934Y12393*
X32900Y12475*
X32846Y12545*
X32776Y12599*
X32694Y12633*
X32606Y12645*
G37*
G36*
X35669D02*
X35582Y12633D01*
X35500Y12599*
X35429Y12545*
X35376Y12475*
X35342Y12393*
X35330Y12306*
X35342Y12218*
X35376Y12136*
X35429Y12066*
X35500Y12012*
X35582Y11978*
X35669Y11966*
X35757Y11978*
X35839Y12012*
X35909Y12066*
X35963Y12136*
X35997Y12218*
X36008Y12306*
X35997Y12393*
X35963Y12475*
X35909Y12545*
X35839Y12599*
X35757Y12633*
X35669Y12645*
G37*
G36*
X29606D02*
X29519Y12633D01*
X29437Y12599*
X29367Y12545*
X29313Y12475*
X29279Y12393*
X29267Y12306*
X29279Y12218*
X29313Y12136*
X29367Y12066*
X29437Y12012*
X29519Y11978*
X29606Y11966*
X29694Y11978*
X29776Y12012*
X29846Y12066*
X29900Y12136*
X29934Y12218*
X29945Y12306*
X29934Y12393*
X29900Y12475*
X29846Y12545*
X29776Y12599*
X29694Y12633*
X29606Y12645*
G37*
G36*
X23425D02*
X23337Y12633D01*
X23256Y12599*
X23185Y12545*
X23132Y12475*
X23098Y12393*
X23086Y12306*
X23098Y12218*
X23132Y12136*
X23185Y12066*
X23256Y12012*
X23337Y11978*
X23425Y11966*
X23513Y11978*
X23595Y12012*
X23665Y12066*
X23719Y12136*
X23753Y12218*
X23764Y12306*
X23753Y12393*
X23719Y12475*
X23665Y12545*
X23595Y12599*
X23513Y12633*
X23425Y12645*
G37*
G36*
X26425D02*
X26337Y12633D01*
X26256Y12599*
X26185Y12545*
X26132Y12475*
X26098Y12393*
X26086Y12306*
X26098Y12218*
X26132Y12136*
X26185Y12066*
X26256Y12012*
X26337Y11978*
X26425Y11966*
X26513Y11978*
X26595Y12012*
X26665Y12066*
X26719Y12136*
X26753Y12218*
X26764Y12306*
X26753Y12393*
X26719Y12475*
X26665Y12545*
X26595Y12599*
X26513Y12633*
X26425Y12645*
G37*
G36*
X38669D02*
X38582Y12633D01*
X38500Y12599*
X38430Y12545*
X38376Y12475*
X38342Y12393*
X38330Y12306*
X38342Y12218*
X38376Y12136*
X38430Y12066*
X38500Y12012*
X38582Y11978*
X38669Y11966*
X38757Y11978*
X38839Y12012*
X38909Y12066*
X38963Y12136*
X38997Y12218*
X39008Y12306*
X38997Y12393*
X38963Y12475*
X38909Y12545*
X38839Y12599*
X38757Y12633*
X38669Y12645*
G37*
G36*
X1428Y12419D02*
Y12018D01*
X1830*
X1821Y12086*
X1775Y12197*
X1702Y12292*
X1607Y12365*
X1497Y12410*
X1428Y12419*
G37*
G36*
X3690Y12705D02*
X3288D01*
X3298Y12637*
X3343Y12526*
X3416Y12431*
X3511Y12358*
X3622Y12313*
X3690Y12304*
Y12705*
G37*
G36*
X1328Y12419D02*
X1259Y12410D01*
X1149Y12365*
X1054Y12292*
X981Y12197*
X935Y12086*
X926Y12018*
X1328*
Y12419*
G37*
G36*
X41850Y12645D02*
X41763Y12633D01*
X41681Y12599*
X41611Y12545*
X41557Y12475*
X41523Y12393*
X41511Y12306*
X41523Y12218*
X41557Y12136*
X41611Y12066*
X41681Y12012*
X41763Y11978*
X41850Y11966*
X41938Y11978*
X42020Y12012*
X42090Y12066*
X42144Y12136*
X42178Y12218*
X42190Y12306*
X42178Y12393*
X42144Y12475*
X42090Y12545*
X42020Y12599*
X41938Y12633*
X41850Y12645*
G37*
G36*
X44850D02*
X44763Y12633D01*
X44681Y12599*
X44611Y12545*
X44557Y12475*
X44523Y12393*
X44511Y12306*
X44523Y12218*
X44557Y12136*
X44611Y12066*
X44681Y12012*
X44763Y11978*
X44850Y11966*
X44938Y11978*
X45020Y12012*
X45090Y12066*
X45144Y12136*
X45178Y12218*
X45190Y12306*
X45178Y12393*
X45144Y12475*
X45090Y12545*
X45020Y12599*
X44938Y12633*
X44850Y12645*
G37*
G36*
X20362D02*
X20274Y12633D01*
X20193Y12599*
X20122Y12545*
X20069Y12475*
X20035Y12393*
X20023Y12306*
X20035Y12218*
X20069Y12136*
X20122Y12066*
X20193Y12012*
X20274Y11978*
X20362Y11966*
X20450Y11978*
X20532Y12012*
X20602Y12066*
X20656Y12136*
X20690Y12218*
X20701Y12306*
X20690Y12393*
X20656Y12475*
X20602Y12545*
X20532Y12599*
X20450Y12633*
X20362Y12645*
G37*
G36*
X1328Y11918D02*
X926D01*
X935Y11849*
X981Y11739*
X1054Y11644*
X1149Y11571*
X1259Y11525*
X1328Y11516*
Y11918*
G37*
G36*
X1830D02*
X1428D01*
Y11516*
X1497Y11525*
X1607Y11571*
X1702Y11644*
X1775Y11739*
X1821Y11849*
X1830Y11918*
G37*
G36*
X36006Y11658D02*
X35333D01*
Y11514*
X35121*
X35113Y11554*
X35087Y11593*
X35048Y11619*
X35003Y11628*
X34682*
X34637Y11619*
X34598Y11593*
X34572Y11554*
X34563Y11509*
Y11238*
X34169Y10844*
X31457*
X31398Y10833*
X31349Y10800*
X30744Y10195*
X30711Y10146*
X30699Y10087*
Y9041*
X30695Y9038*
X30647Y8966*
X30630Y8880*
Y8250*
X30647Y8165*
X30695Y8093*
X30767Y8045*
X30852Y8028*
X30937Y8045*
X31010Y8093*
X31058Y8165*
X31075Y8250*
Y8880*
X31058Y8966*
X31010Y9038*
X31005Y9041*
Y10024*
X31520Y10539*
X34233*
X34291Y10550*
X34341Y10583*
X34846Y11089*
X35003*
X35048Y11098*
X35087Y11124*
X35113Y11162*
X35122Y11208*
X35333*
Y10985*
X36006*
Y11658*
G37*
G36*
X42187D02*
X41514D01*
Y11474*
X41303*
Y11509*
X41294Y11554*
X41268Y11593*
X41230Y11619*
X41184Y11628*
X40863*
X40818Y11619*
X40779Y11593*
X40753Y11554*
X40744Y11509*
Y11219*
X40601Y11075*
X40567Y11026*
X40556Y10967*
Y10400*
X40488Y10333*
X31772*
X31713Y10321*
X31664Y10288*
X31244Y9868*
X31211Y9819*
X31199Y9760*
Y9041*
X31195Y9038*
X31147Y8966*
X31130Y8880*
Y8250*
X31147Y8165*
X31195Y8093*
X31267Y8045*
X31352Y8028*
X31437Y8045*
X31510Y8093*
X31558Y8165*
X31575Y8250*
Y8880*
X31558Y8966*
X31510Y9038*
X31505Y9041*
Y9697*
X31835Y10027*
X40551*
X40610Y10038*
X40659Y10071*
X40817Y10229*
X40850Y10279*
X40862Y10337*
Y10904*
X41047Y11089*
X41184*
X41230Y11098*
X41268Y11124*
X41294Y11162*
X41295Y11168*
X41514*
Y10985*
X42187*
Y11658*
G37*
G36*
X17698D02*
X17026D01*
Y11511*
X16775*
X16766Y11554*
X16741Y11593*
X16702Y11619*
X16657Y11628*
X16336*
X16290Y11619*
X16251Y11593*
X16226Y11554*
X16217Y11509*
Y11208*
X16226Y11162*
X16251Y11124*
X16290Y11098*
X16336Y11089*
X16657*
X16702Y11098*
X16741Y11124*
X16766Y11162*
X16775Y11205*
X17026*
Y10985*
X17209*
Y10731*
X17221Y10672*
X17254Y10623*
X17727Y10150*
X17776Y10117*
X17835Y10105*
X28244*
X29199Y9150*
Y9041*
X29195Y9038*
X29147Y8966*
X29130Y8880*
Y8250*
X29147Y8165*
X29195Y8093*
X29267Y8045*
X29352Y8028*
X29437Y8045*
X29510Y8093*
X29558Y8165*
X29575Y8250*
Y8880*
X29558Y8966*
X29510Y9038*
X29505Y9041*
Y9213*
X29494Y9272*
X29461Y9321*
X28415Y10367*
X28366Y10400*
X28307Y10411*
X17898*
X17515Y10794*
Y10985*
X17698*
Y11658*
G37*
G36*
X16657Y12888D02*
X16336D01*
X16290Y12879*
X16251Y12853*
X16226Y12814*
X16217Y12769*
Y12468*
X16226Y12422*
X16251Y12383*
X16290Y12358*
X16336Y12349*
X16343*
Y12297*
X16336*
X16290Y12288*
X16251Y12262*
X16226Y12224*
X16217Y12178*
Y11877*
X16226Y11831*
X16251Y11793*
X16290Y11767*
X16336Y11758*
X16657*
X16702Y11767*
X16741Y11793*
X16766Y11831*
X16776Y11877*
Y12178*
X16766Y12224*
X16741Y12262*
X16702Y12288*
X16657Y12297*
X16649*
Y12349*
X16657*
X16702Y12358*
X16741Y12383*
X16766Y12422*
X16776Y12468*
Y12769*
X16766Y12814*
X16741Y12853*
X16702Y12879*
X16657Y12888*
G37*
G36*
X41184Y12966D02*
X40863D01*
X40818Y12957*
X40779Y12932*
X40753Y12893*
X40744Y12847*
Y12546*
X40753Y12501*
X40779Y12462*
X40818Y12436*
X40863Y12427*
X40871*
Y12297*
X40863*
X40818Y12288*
X40779Y12262*
X40753Y12224*
X40744Y12178*
Y11877*
X40753Y11831*
X40779Y11793*
X40818Y11767*
X40863Y11758*
X41184*
X41230Y11767*
X41268Y11793*
X41294Y11831*
X41303Y11877*
Y12178*
X41294Y12224*
X41268Y12262*
X41230Y12288*
X41184Y12297*
X41177*
Y12427*
X41184*
X41230Y12436*
X41268Y12462*
X41294Y12501*
X41303Y12546*
Y12847*
X41294Y12893*
X41268Y12932*
X41230Y12957*
X41184Y12966*
G37*
G36*
X17362Y12645D02*
X17274Y12633D01*
X17193Y12599*
X17122Y12545*
X17069Y12475*
X17035Y12393*
X17023Y12306*
X17035Y12218*
X17069Y12136*
X17122Y12066*
X17193Y12012*
X17274Y11978*
X17362Y11966*
X17450Y11978*
X17532Y12012*
X17602Y12066*
X17656Y12136*
X17690Y12218*
X17701Y12306*
X17690Y12393*
X17656Y12475*
X17602Y12545*
X17532Y12599*
X17450Y12633*
X17362Y12645*
G37*
G36*
X35003Y12966D02*
X34682D01*
X34637Y12957*
X34598Y12932*
X34572Y12893*
X34563Y12847*
Y12546*
X34572Y12501*
X34598Y12462*
X34637Y12436*
X34682Y12427*
X34690*
Y12297*
X34682*
X34637Y12288*
X34598Y12262*
X34572Y12224*
X34563Y12178*
Y11877*
X34572Y11831*
X34598Y11793*
X34637Y11767*
X34682Y11758*
X35003*
X35048Y11767*
X35087Y11793*
X35113Y11831*
X35122Y11877*
Y12178*
X35113Y12224*
X35087Y12262*
X35048Y12288*
X35003Y12297*
X34995*
Y12427*
X35003*
X35048Y12436*
X35087Y12462*
X35113Y12501*
X35122Y12546*
Y12847*
X35113Y12893*
X35087Y12932*
X35048Y12957*
X35003Y12966*
G37*
G36*
X22719D02*
X22399D01*
X22353Y12957*
X22314Y12932*
X22289Y12893*
X22280Y12847*
Y12546*
X22289Y12501*
X22314Y12462*
X22353Y12436*
X22399Y12427*
X22406*
Y12297*
X22399*
X22353Y12288*
X22314Y12262*
X22289Y12224*
X22280Y12178*
Y11877*
X22289Y11831*
X22314Y11793*
X22353Y11767*
X22399Y11758*
X22719*
X22765Y11767*
X22804Y11793*
X22829Y11831*
X22839Y11877*
Y12178*
X22829Y12224*
X22804Y12262*
X22765Y12288*
X22719Y12297*
X22712*
Y12427*
X22719*
X22765Y12436*
X22804Y12462*
X22829Y12501*
X22839Y12546*
Y12847*
X22829Y12893*
X22804Y12932*
X22765Y12957*
X22719Y12966*
G37*
G36*
X28940D02*
X28619D01*
X28574Y12957*
X28535Y12932*
X28509Y12893*
X28500Y12847*
Y12546*
X28509Y12501*
X28535Y12462*
X28574Y12436*
X28619Y12427*
X28627*
Y12297*
X28619*
X28574Y12288*
X28535Y12262*
X28509Y12224*
X28500Y12178*
Y11877*
X28509Y11831*
X28535Y11793*
X28574Y11767*
X28619Y11758*
X28940*
X28986Y11767*
X29024Y11793*
X29050Y11831*
X29059Y11877*
Y12178*
X29050Y12224*
X29024Y12262*
X28986Y12288*
X28940Y12297*
X28932*
Y12427*
X28940*
X28986Y12436*
X29024Y12462*
X29050Y12501*
X29059Y12546*
Y12847*
X29050Y12893*
X29024Y12932*
X28986Y12957*
X28940Y12966*
G37*
G36*
X4192Y12705D02*
X3790D01*
Y12304*
X3859Y12313*
X3969Y12358*
X4064Y12431*
X4137Y12526*
X4183Y12637*
X4192Y12705*
G37*
G36*
X44850Y13629D02*
X44763Y13617D01*
X44681Y13584*
X44611Y13530*
X44557Y13459*
X44523Y13378*
X44511Y13290*
X44523Y13202*
X44557Y13120*
X44611Y13050*
X44681Y12996*
X44763Y12962*
X44850Y12951*
X44938Y12962*
X45020Y12996*
X45090Y13050*
X45144Y13120*
X45178Y13202*
X45190Y13290*
X45178Y13378*
X45144Y13459*
X45090Y13530*
X45020Y13584*
X44938Y13617*
X44850Y13629*
G37*
G36*
X16446Y13237D02*
X16217D01*
Y13137*
X16226Y13091*
X16251Y13053*
X16290Y13027*
X16336Y13018*
X16446*
Y13237*
G37*
G36*
X41850Y13629D02*
X41763Y13617D01*
X41681Y13584*
X41611Y13530*
X41557Y13459*
X41523Y13378*
X41511Y13290*
X41523Y13202*
X41557Y13120*
X41611Y13050*
X41681Y12996*
X41763Y12962*
X41850Y12951*
X41938Y12962*
X42020Y12996*
X42090Y13050*
X42144Y13120*
X42178Y13202*
X42190Y13290*
X42178Y13378*
X42144Y13459*
X42090Y13530*
X42020Y13584*
X41938Y13617*
X41850Y13629*
G37*
G36*
X35669D02*
X35582Y13617D01*
X35500Y13584*
X35429Y13530*
X35376Y13459*
X35342Y13378*
X35330Y13290*
X35342Y13202*
X35376Y13120*
X35429Y13050*
X35500Y12996*
X35582Y12962*
X35669Y12951*
X35757Y12962*
X35839Y12996*
X35909Y13050*
X35963Y13120*
X35997Y13202*
X36008Y13290*
X35997Y13378*
X35963Y13459*
X35909Y13530*
X35839Y13584*
X35757Y13617*
X35669Y13629*
G37*
G36*
X38669D02*
X38582Y13617D01*
X38500Y13584*
X38430Y13530*
X38376Y13459*
X38342Y13378*
X38330Y13290*
X38342Y13202*
X38376Y13120*
X38430Y13050*
X38500Y12996*
X38582Y12962*
X38669Y12951*
X38757Y12962*
X38839Y12996*
X38909Y13050*
X38963Y13120*
X38997Y13202*
X39008Y13290*
X38997Y13378*
X38963Y13459*
X38909Y13530*
X38839Y13584*
X38757Y13617*
X38669Y13629*
G37*
G36*
X16776Y13237D02*
X16546D01*
Y13018*
X16657*
X16702Y13027*
X16741Y13053*
X16766Y13091*
X16776Y13137*
Y13237*
G37*
G36*
X29059Y13316D02*
X28830D01*
Y13097*
X28940*
X28986Y13106*
X29024Y13131*
X29050Y13170*
X29059Y13216*
Y13316*
G37*
G36*
X34793D02*
X34563D01*
Y13216*
X34572Y13170*
X34598Y13131*
X34637Y13106*
X34682Y13097*
X34793*
Y13316*
G37*
G36*
X28730D02*
X28500D01*
Y13216*
X28509Y13170*
X28535Y13131*
X28574Y13106*
X28619Y13097*
X28730*
Y13316*
G37*
G36*
X22509D02*
X22280D01*
Y13216*
X22289Y13170*
X22314Y13131*
X22353Y13106*
X22399Y13097*
X22509*
Y13316*
G37*
G36*
X22839D02*
X22609D01*
Y13097*
X22719*
X22765Y13106*
X22804Y13131*
X22829Y13170*
X22839Y13216*
Y13316*
G37*
G36*
X32606Y13629D02*
X32519Y13617D01*
X32437Y13584*
X32367Y13530*
X32313Y13459*
X32279Y13378*
X32267Y13290*
X32279Y13202*
X32313Y13120*
X32367Y13050*
X32437Y12996*
X32519Y12962*
X32606Y12951*
X32694Y12962*
X32776Y12996*
X32846Y13050*
X32900Y13120*
X32934Y13202*
X32945Y13290*
X32934Y13378*
X32900Y13459*
X32846Y13530*
X32776Y13584*
X32694Y13617*
X32606Y13629*
G37*
G36*
X3790Y13207D02*
Y12805D01*
X4192*
X4183Y12874*
X4137Y12984*
X4064Y13079*
X3969Y13152*
X3859Y13198*
X3790Y13207*
G37*
G36*
X10737D02*
X10669Y13198D01*
X10558Y13152*
X10463Y13079*
X10391Y12984*
X10345Y12874*
X10336Y12805*
X10737*
Y13207*
G37*
G36*
X3690D02*
X3622Y13198D01*
X3511Y13152*
X3416Y13079*
X3343Y12984*
X3298Y12874*
X3288Y12805*
X3690*
Y13207*
G37*
G36*
X10737Y12705D02*
X10336D01*
X10345Y12637*
X10391Y12526*
X10463Y12431*
X10558Y12358*
X10669Y12313*
X10737Y12304*
Y12705*
G37*
G36*
X11239D02*
X10837D01*
Y12304*
X10906Y12313*
X11017Y12358*
X11111Y12431*
X11184Y12526*
X11230Y12637*
X11239Y12705*
G37*
G36*
X10837Y13207D02*
Y12805D01*
X11239*
X11230Y12874*
X11184Y12984*
X11111Y13079*
X11017Y13152*
X10906Y13198*
X10837Y13207*
G37*
G36*
X26425Y13629D02*
X26337Y13617D01*
X26256Y13584*
X26185Y13530*
X26132Y13459*
X26098Y13378*
X26086Y13290*
X26098Y13202*
X26132Y13120*
X26185Y13050*
X26256Y12996*
X26337Y12962*
X26425Y12951*
X26513Y12962*
X26595Y12996*
X26665Y13050*
X26719Y13120*
X26753Y13202*
X26764Y13290*
X26753Y13378*
X26719Y13459*
X26665Y13530*
X26595Y13584*
X26513Y13617*
X26425Y13629*
G37*
G36*
X29606D02*
X29519Y13617D01*
X29437Y13584*
X29367Y13530*
X29313Y13459*
X29279Y13378*
X29267Y13290*
X29279Y13202*
X29313Y13120*
X29367Y13050*
X29437Y12996*
X29519Y12962*
X29606Y12951*
X29694Y12962*
X29776Y12996*
X29846Y13050*
X29900Y13120*
X29934Y13202*
X29945Y13290*
X29934Y13378*
X29900Y13459*
X29846Y13530*
X29776Y13584*
X29694Y13617*
X29606Y13629*
G37*
G36*
X23425D02*
X23337Y13617D01*
X23256Y13584*
X23185Y13530*
X23132Y13459*
X23098Y13378*
X23086Y13290*
X23098Y13202*
X23132Y13120*
X23185Y13050*
X23256Y12996*
X23337Y12962*
X23425Y12951*
X23513Y12962*
X23595Y12996*
X23665Y13050*
X23719Y13120*
X23753Y13202*
X23764Y13290*
X23753Y13378*
X23719Y13459*
X23665Y13530*
X23595Y13584*
X23513Y13617*
X23425Y13629*
G37*
G36*
X17362D02*
X17274Y13617D01*
X17193Y13584*
X17122Y13530*
X17069Y13459*
X17035Y13378*
X17023Y13290*
X17035Y13202*
X17069Y13120*
X17122Y13050*
X17193Y12996*
X17274Y12962*
X17362Y12951*
X17450Y12962*
X17532Y12996*
X17602Y13050*
X17656Y13120*
X17690Y13202*
X17701Y13290*
X17690Y13378*
X17656Y13459*
X17602Y13530*
X17532Y13584*
X17450Y13617*
X17362Y13629*
G37*
G36*
X20362D02*
X20274Y13617D01*
X20193Y13584*
X20122Y13530*
X20069Y13459*
X20035Y13378*
X20023Y13290*
X20035Y13202*
X20069Y13120*
X20122Y13050*
X20193Y12996*
X20274Y12962*
X20362Y12951*
X20450Y12962*
X20532Y12996*
X20602Y13050*
X20656Y13120*
X20690Y13202*
X20701Y13290*
X20690Y13378*
X20656Y13459*
X20602Y13530*
X20532Y13584*
X20450Y13617*
X20362Y13629*
G37*
%LNsourceselection-3*%
%LPD*%
G54D10*
X39961Y8484D03*
Y7815D03*
Y6280D03*
Y6949D03*
X13228Y14136D03*
Y13467D03*
X12441Y14862D03*
Y14193D03*
X6142Y15571D03*
Y14902D03*
X16496Y13287D03*
Y12618D03*
Y12028D03*
Y11358D03*
X22559Y13366D03*
Y12697D03*
Y12028D03*
Y11358D03*
X28780Y13366D03*
Y12697D03*
Y12028D03*
Y11358D03*
X34843Y13366D03*
Y12697D03*
Y12028D03*
Y11358D03*
X41024Y13366D03*
Y12697D03*
Y12028D03*
Y11358D03*
G54D11*
X6122Y14134D03*
X6791D03*
G54D12*
X29352Y6676D03*
X29852D03*
X30352D03*
X30852D03*
X31352D03*
X31852D03*
X32352D03*
X32852D03*
X29352Y8565D03*
X29852D03*
X30352D03*
X30852D03*
X31352D03*
X31852D03*
X32352D03*
X32852D03*
G54D13*
X28563Y4778D03*
Y4278D03*
Y3778D03*
Y3278D03*
Y2778D03*
Y2278D03*
Y1778D03*
Y1278D03*
Y778D03*
X32146Y4778D03*
Y4278D03*
Y3778D03*
Y3278D03*
Y2778D03*
Y2278D03*
Y1778D03*
Y1278D03*
Y778D03*
G54D14*
X33701Y4220D03*
Y3531D03*
X33661Y7237D03*
Y7926D03*
G54D15*
X39961Y7267D02*
X40255D01*
X36267D02*
X39961D01*
Y6949D02*
Y7267D01*
Y7467D02*
X41004D01*
X36185D02*
X39961D01*
Y7815*
X6122Y14882D02*
X6142Y14902D01*
X6122Y14134D02*
Y14882D01*
X6142Y15571D02*
Y16417D01*
X12441Y14862D02*
Y16457D01*
X12402Y16496D02*
X12441Y16457D01*
X6791Y14134D02*
Y14350D01*
Y13802D02*
Y14134D01*
Y14350D02*
X6969Y14528D01*
X13384*
X13556Y14356*
Y14026D02*
Y14356D01*
Y14026D02*
X14213Y13369D01*
X12461Y14134D02*
X12463Y14136D01*
X13228*
X13150Y13388D02*
X13228Y13467D01*
X13150Y11968D02*
Y13388D01*
X34902Y11361D02*
X35669D01*
X34233Y10691D02*
X34902Y11361D01*
X31457Y10691D02*
X34233D01*
X40984Y12697D02*
X41024Y12657D01*
Y12028D02*
Y12657D01*
X34843Y12028D02*
Y12697D01*
X28780Y12028D02*
Y12697D01*
Y11358D02*
X28816Y11321D01*
X29606*
X22559Y12028D02*
Y12697D01*
Y11358D02*
X22596Y11321D01*
X23425*
X17325Y11358D02*
X17362Y11321D01*
X16496Y11358D02*
X17325D01*
X16496Y12028D02*
Y12618D01*
X41004Y7467D02*
X41283Y7188D01*
X40255Y7267D02*
X40809Y6713D01*
X41283Y8188D02*
X41758Y7713D01*
Y6991D02*
Y7713D01*
X41480Y6713D02*
X41758Y6991D01*
X40809Y6713D02*
X41480D01*
X31772Y10180D02*
X40551D01*
X40709Y10337*
Y10967*
X41063Y11321D02*
X41850D01*
X40709Y10967D02*
X41063Y11321D01*
X30352Y8565D02*
Y10967D01*
X29998Y11321D02*
X30352Y10967D01*
X29606Y11321D02*
X29998D01*
X28622Y10731D02*
X29852Y9500D01*
X24016Y10731D02*
X28622D01*
X23425Y11321D02*
X24016Y10731D01*
X17362D02*
X17835Y10258D01*
X17362Y10731D02*
Y11321D01*
X17835Y10258D02*
X28307D01*
X35000Y5999D02*
X36267Y7267D01*
X34764Y6046D02*
X36185Y7467D01*
X32126Y7542D02*
X32352Y7768D01*
X17576Y7542D02*
X32126D01*
X31583Y7778D02*
X31852Y8047D01*
X17756Y7778D02*
X31583D01*
X32352Y7768D02*
Y8565D01*
X31852Y8047D02*
Y8565D01*
X38720Y17266D02*
Y17463D01*
X29352Y8565D02*
Y9213D01*
X28307Y10258D02*
X29352Y9213D01*
X34764Y2313D02*
Y6046D01*
X33729Y1278D02*
X34764Y2313D01*
X32146Y1278D02*
X33729D01*
X35000Y2266D02*
Y5999D01*
X33512Y778D02*
X35000Y2266D01*
X32146Y778D02*
X33512D01*
X31352Y9760D02*
X31772Y10180D01*
X31352Y8565D02*
Y9760D01*
X30852Y10087D02*
X31457Y10691D01*
X30852Y8565D02*
Y10087D01*
X29852Y8565D02*
Y9500D01*
X28563Y1778D02*
X29354D01*
X28563Y2278D02*
X29319D01*
X31339Y6662D02*
X31352Y6676D01*
X28563Y2778D02*
X29252D01*
X28563Y3278D02*
X29185D01*
X28563Y3778D02*
X29157D01*
X28563Y4278D02*
X29374D01*
X29370Y4904D02*
Y6321D01*
X29244Y4778D02*
X29370Y4904D01*
X28563Y4778D02*
X29244D01*
X6102Y11968D02*
Y13113D01*
X13150Y11968D02*
X17576Y7542D01*
X6102Y13113D02*
X6791Y13802D01*
X14213Y11321D02*
X17756Y7778D01*
X14213Y11321D02*
Y13369D01*
X29354Y1778D02*
X30866Y3290D01*
X29319Y2278D02*
X30591Y3550D01*
X29252Y2778D02*
X30315Y3841D01*
X29185Y3278D02*
X30079Y4172D01*
X29157Y3778D02*
X29843Y4464D01*
X29374Y4278D02*
X29606Y4510D01*
X32352Y5974D02*
Y6676D01*
X30866Y3290D02*
Y4488D01*
X32352Y5974*
X31852Y5907D02*
Y6676D01*
X30591Y3550D02*
Y4646D01*
X31852Y5907*
X31339Y5787D02*
Y6662D01*
X30315Y3841D02*
Y4764D01*
X31339Y5787*
X30852Y5734D02*
Y6676D01*
X30079Y4172D02*
Y4961D01*
X30852Y5734*
X29843Y4464D02*
Y5197D01*
X30352Y5707*
Y6676*
X29606Y4510D02*
Y5433D01*
X29852Y5679*
Y6676*
G54D16*
X19646Y15914D02*
X20295Y16564D01*
X19646Y14786D02*
Y15914D01*
Y14786D02*
X20157Y14274D01*
X23484Y16617D02*
X24134Y15967D01*
Y14668D02*
Y15967D01*
X23740Y14274D02*
X24134Y14668D01*
X25709Y16006D02*
X26496Y16794D01*
X25709Y14628D02*
Y16006D01*
Y14628D02*
X26063Y14274D01*
X29626Y16735D02*
X30315Y16046D01*
Y14656D02*
Y16046D01*
X29933Y14274D02*
X30315Y14656D01*
X36378Y14747D02*
Y16085D01*
X35945Y14313D02*
X36378Y14747D01*
X35669Y14313D02*
X35945D01*
X35768Y16695D02*
X36378Y16085D01*
X42638Y14786D02*
Y15967D01*
X42126Y14274D02*
X42638Y14786D01*
X41850Y14274D02*
X42126D01*
X29606D02*
X29933D01*
X26063D02*
X26425D01*
X23425D02*
X23740D01*
X18071Y14786D02*
Y15967D01*
X17559Y14274D02*
X18071Y14786D01*
X17362Y14274D02*
X17559D01*
X20157D02*
X20362D01*
X44862Y16695D02*
Y17463D01*
X41909Y16695D02*
X42638Y15967D01*
X41909Y16695D02*
Y17463D01*
X32638Y16627D02*
Y17404D01*
X29626Y16735D02*
Y17463D01*
X26496Y16794D02*
Y17404D01*
X23484Y16617D02*
Y17463D01*
X20295Y16564D02*
Y17463D01*
X17343Y16695D02*
X18071Y15967D01*
X17343Y16695D02*
Y17463D01*
X26437D02*
X26496Y17404D01*
X32579Y17463D02*
X32638Y17404D01*
X35768Y16695D02*
Y17463D01*
X32419Y14274D02*
X32606D01*
X44134Y15967D02*
X44862Y16695D01*
X38720Y16791D02*
Y17266D01*
X38442Y14274D02*
X38669D01*
X44134Y14803D02*
Y15967D01*
Y14803D02*
X44663Y14274D01*
X44850*
X37913Y14803D02*
X38442Y14274D01*
X37913Y14803D02*
Y15984D01*
X38720Y16791*
X31890Y14803D02*
X32419Y14274D01*
X31890Y14803D02*
Y15879D01*
X32638Y16627*
G54D17*
X32852Y5750D02*
Y6676D01*
X32146Y2278D02*
X33071D01*
X32146Y2778D02*
X33071D01*
X32146Y4778D02*
X33071D01*
X33661Y6312D02*
Y7237D01*
X33701Y4220D02*
Y5145D01*
G54D18*
X41283Y8188D03*
G54D19*
X42283Y8188D03*
X41283Y7188D03*
X42283D03*
X41283Y6187D03*
X42283D03*
G54D20*
X13150Y7165D03*
X8425D03*
Y11968D03*
X10787Y12755D03*
X13150Y11968D03*
X6102Y7165D03*
X1378D03*
Y11968D03*
X3740Y12755D03*
X6102Y11968D03*
G54D21*
X44411Y2510D03*
X45511D03*
X46061Y1558D03*
X45511Y605D03*
X44411D03*
X43861Y1558D03*
X985Y21802D03*
X2085D03*
X2635Y20849D03*
X2085Y19896D03*
X985D03*
X435Y20849D03*
Y1558D03*
X985Y605D03*
X2085D03*
X2635Y1558D03*
X2085Y2510D03*
X985D03*
G54D22*
X44961Y1558D03*
X1535Y20849D03*
Y1558D03*
G54D23*
X41850Y11321D03*
X35669D03*
X29606D03*
X23425D03*
X17362D03*
G54D24*
X41850Y12306D03*
Y13290D03*
Y14274D03*
Y15258D03*
X44850Y11321D03*
Y12306D03*
Y13290D03*
Y14274D03*
Y15258D03*
X35669Y12306D03*
Y13290D03*
Y14274D03*
Y15258D03*
X38669Y11321D03*
Y12306D03*
Y13290D03*
Y14274D03*
Y15258D03*
X29606Y12306D03*
Y13290D03*
Y14274D03*
Y15258D03*
X32606Y11321D03*
Y12306D03*
Y13290D03*
Y14274D03*
Y15258D03*
X23425Y12306D03*
Y13290D03*
Y14274D03*
Y15258D03*
X26425Y11321D03*
Y12306D03*
Y13290D03*
Y14274D03*
Y15258D03*
X17362Y12306D03*
Y13290D03*
Y14274D03*
Y15258D03*
X20362Y11321D03*
Y12306D03*
Y13290D03*
Y14274D03*
Y15258D03*
G54D25*
X11654Y3172D03*
X17244Y3140D03*
X4606Y3132D03*
G54D26*
X13154Y3172D03*
X20244Y3140D03*
X18744D03*
X6106Y3132D03*
G54D27*
X17343Y17463D03*
X20295D03*
X23484D03*
X26437D03*
X29626D03*
X32579D03*
X35768D03*
X38720D03*
X41909D03*
X44862D03*
G54D28*
X17343Y20317D03*
X23484D03*
X29626D03*
X35768D03*
X41909D03*
G54D29*
X21140Y18989D03*
X16498D03*
X27282D03*
X22639D03*
X33424D03*
X28781D03*
X39565D03*
X34923D03*
X45707D03*
X41065D03*
G54D30*
X32852Y5750D03*
Y6105D03*
X33071Y2278D03*
X32717D03*
X33071Y2778D03*
X32717D03*
Y4778D03*
X33071D03*
X33661Y6666D03*
Y6312D03*
X33701Y4791D03*
Y5145D03*
M02*